<svg xmlns="http://www.w3.org/2000/svg" width="1920" height="1080" viewBox="0 0 1920 1080">
<rect width="1920" height="1080" fill="#f7f3ea"/>
<rect width="1920" height="1080" fill="#0f2f3a" opacity="0.035"/>
<text x="70" y="84" font-size="42" font-weight="800" fill="#172033" text-anchor="start">Prioridades de adensamento por grupo tecnológico</text>
<text x="70" y="122" font-size="22" font-weight="500" fill="#4e5b6c" text-anchor="start">Leitura executiva: onde existe capacidade, onde há gaps e onde entrantes podem acelerar escala</text>
<rect x="70" y="158" width="1780" height="820" rx="10" fill="#ffffff" stroke="#d8d3c8"/>
<text x="102" y="222" font-size="25" font-weight="800" fill="#172033" text-anchor="start">Como interpretar</text>
<circle cx="116" cy="258" r="10" fill="#1f8a70"/>
<text x="136" y="264" font-size="18" font-weight="800" fill="#172033" text-anchor="start">Adensar agora</text>
<text x="136" y="285" font-size="14" font-weight="600" fill="#657184" text-anchor="start">crítico/complexo + muitos CNPJs</text>
<circle cx="116" cy="310" r="10" fill="#b24b34"/>
<text x="136" y="316" font-size="18" font-weight="800" fill="#172033" text-anchor="start">Gap crítico</text>
<text x="136" y="337" font-size="14" font-weight="600" fill="#657184" text-anchor="start">crítico/complexo + sem CNPJs</text>
<circle cx="116" cy="362" r="10" fill="#d16931"/>
<text x="136" y="368" font-size="18" font-weight="800" fill="#172033" text-anchor="start">Desenvolver</text>
<text x="136" y="389" font-size="14" font-weight="600" fill="#657184" text-anchor="start">crítico/complexo + poucos CNPJs</text>
<circle cx="116" cy="414" r="10" fill="#2c6bed"/>
<text x="136" y="420" font-size="18" font-weight="800" fill="#172033" text-anchor="start">Entrantes</text>
<text x="136" y="441" font-size="14" font-weight="600" fill="#657184" text-anchor="start">muitos CNPJs + menor complexidade</text>
<rect x="360" y="224" width="330" height="42" rx="10" fill="#1f8a70"/>
<text x="525" y="252" font-size="18" font-weight="800" fill="#ffffff" text-anchor="middle">GT 1 | Baterias</text>
<rect x="745" y="224" width="330" height="42" rx="10" fill="#2c6bed"/>
<text x="910" y="252" font-size="18" font-weight="800" fill="#ffffff" text-anchor="middle">GT 2 | Máquinas elétricas</text>
<rect x="1130" y="224" width="330" height="42" rx="10" fill="#d16931"/>
<text x="1295" y="252" font-size="18" font-weight="800" fill="#ffffff" text-anchor="middle">GT 3 | Inversores/conversores</text>
<text x="102" y="368" font-size="22" font-weight="800" fill="#172033" text-anchor="start">Adensar agora</text>
<rect x="360" y="290" width="330" height="104" rx="12" fill="#1f8a70" opacity="0.43"/>
<text x="525" y="347" font-size="38" font-weight="800" fill="#172033" text-anchor="middle">7</text>
<text x="525" y="374" font-size="15" font-weight="700" fill="#293447" text-anchor="middle">componentes</text>
<rect x="745" y="290" width="330" height="104" rx="12" fill="#1f8a70" opacity="0.33"/>
<text x="910" y="347" font-size="38" font-weight="800" fill="#172033" text-anchor="middle">4</text>
<text x="910" y="374" font-size="15" font-weight="700" fill="#293447" text-anchor="middle">componentes</text>
<rect x="1130" y="290" width="330" height="104" rx="12" fill="#1f8a70" opacity="0.23"/>
<text x="1295" y="347" font-size="38" font-weight="800" fill="#172033" text-anchor="middle">1</text>
<text x="1295" y="374" font-size="15" font-weight="700" fill="#293447" text-anchor="middle">componentes</text>
<text x="102" y="506" font-size="22" font-weight="800" fill="#172033" text-anchor="start">Gap crítico</text>
<rect x="360" y="428" width="330" height="104" rx="12" fill="#b24b34" opacity="0.43"/>
<text x="525" y="485" font-size="38" font-weight="800" fill="#172033" text-anchor="middle">7</text>
<text x="525" y="512" font-size="15" font-weight="700" fill="#293447" text-anchor="middle">componentes</text>
<rect x="745" y="428" width="330" height="104" rx="12" fill="#b24b34" opacity="0.53"/>
<text x="910" y="485" font-size="38" font-weight="800" fill="#172033" text-anchor="middle">10</text>
<text x="910" y="512" font-size="15" font-weight="700" fill="#293447" text-anchor="middle">componentes</text>
<rect x="1130" y="428" width="330" height="104" rx="12" fill="#b24b34" opacity="0.30"/>
<text x="1295" y="485" font-size="38" font-weight="800" fill="#172033" text-anchor="middle">3</text>
<text x="1295" y="512" font-size="15" font-weight="700" fill="#293447" text-anchor="middle">componentes</text>
<text x="102" y="644" font-size="22" font-weight="800" fill="#172033" text-anchor="start">Desenvolver</text>
<rect x="360" y="566" width="330" height="104" rx="12" fill="#d16931" opacity="0.43"/>
<text x="525" y="623" font-size="38" font-weight="800" fill="#172033" text-anchor="middle">7</text>
<text x="525" y="650" font-size="15" font-weight="700" fill="#293447" text-anchor="middle">componentes</text>
<rect x="745" y="566" width="330" height="104" rx="12" fill="#d16931" opacity="0.70"/>
<text x="910" y="623" font-size="38" font-weight="800" fill="#172033" text-anchor="middle">15</text>
<text x="910" y="650" font-size="15" font-weight="700" fill="#293447" text-anchor="middle">componentes</text>
<rect x="1130" y="566" width="330" height="104" rx="12" fill="#d16931" opacity="0.90"/>
<text x="1295" y="623" font-size="38" font-weight="800" fill="#172033" text-anchor="middle">21</text>
<text x="1295" y="650" font-size="15" font-weight="700" fill="#293447" text-anchor="middle">componentes</text>
<text x="102" y="782" font-size="22" font-weight="800" fill="#172033" text-anchor="start">Entrantes</text>
<rect x="360" y="704" width="330" height="104" rx="12" fill="#2c6bed" opacity="0.53"/>
<text x="525" y="761" font-size="38" font-weight="800" fill="#172033" text-anchor="middle">10</text>
<text x="525" y="788" font-size="15" font-weight="700" fill="#293447" text-anchor="middle">componentes</text>
<rect x="745" y="704" width="330" height="104" rx="12" fill="#2c6bed" opacity="0.43"/>
<text x="910" y="761" font-size="38" font-weight="800" fill="#172033" text-anchor="middle">7</text>
<text x="910" y="788" font-size="15" font-weight="700" fill="#293447" text-anchor="middle">componentes</text>
<rect x="1130" y="704" width="330" height="104" rx="12" fill="#2c6bed" opacity="0.43"/>
<text x="1295" y="761" font-size="38" font-weight="800" fill="#172033" text-anchor="middle">7</text>
<text x="1295" y="788" font-size="15" font-weight="700" fill="#293447" text-anchor="middle">componentes</text>
<text x="102" y="860" font-size="24" font-weight="800" fill="#172033" text-anchor="start">Exemplos para narrar</text>
<text x="102" y="902" font-size="17" font-weight="800" fill="#172033" text-anchor="start">Adensar agora</text>
<text x="102" y="930" font-size="14" font-weight="600" fill="#4e5b6c" text-anchor="start">GT 1: 2.1 Separadores</text>
<text x="102" y="952" font-size="14" font-weight="600" fill="#4e5b6c" text-anchor="start">GT 3: 5.5 Isoladores Galvânicos</text>
<text x="102" y="974" font-size="14" font-weight="600" fill="#4e5b6c" text-anchor="start">GT 1: 6.4 Sensores de Gás / Detectores</text>
<text x="722" y="902" font-size="17" font-weight="800" fill="#172033" text-anchor="start">Gap crítico</text>
<text x="722" y="930" font-size="14" font-weight="600" fill="#4e5b6c" text-anchor="start">GT 1: 1.1 Cátodos (NMC, LFP etc.)</text>
<text x="722" y="952" font-size="14" font-weight="600" fill="#4e5b6c" text-anchor="start">GT 1: 1.4 Aditivos</text>
<text x="722" y="974" font-size="14" font-weight="600" fill="#4e5b6c" text-anchor="start">GT 1: 1.5 Solventes</text>
</svg>