<svg xmlns="http://www.w3.org/2000/svg" width="1920" height="1080" viewBox="0 0 1920 1080">
<rect width="1920" height="1080" fill="#f7f3ea"/>
<rect width="1920" height="1080" fill="#0f2f3a" opacity="0.035"/>
<text x="70" y="84" font-size="42" font-weight="800" fill="#172033" text-anchor="start">Mapa de ação: onde adensar, desenvolver ou atrair</text>
<text x="70" y="122" font-size="22" font-weight="500" fill="#4e5b6c" text-anchor="start">Lista priorizada por elo, separando capacidade instalada, entrantes potenciais e gaps críticos</text>
<rect x="70" y="158" width="540" height="820" rx="10" fill="#ffffff" stroke="#d8d3c8"/>
<rect x="70" y="158" width="540" height="58" rx="10" fill="#1f8a70"/>
<text x="96" y="196" font-size="25" font-weight="800" fill="#ffffff" text-anchor="start">Adensar agora</text>
<text x="96" y="246" font-size="15" font-weight="600" fill="#657184" text-anchor="start">Elo crítico/complexo com base empresarial relevante</text>
<text x="96" y="282" font-size="16" font-weight="800" fill="#172033" text-anchor="start">2.1 Separadores</text>
<text x="96" y="304" font-size="13" font-weight="800" fill="#1f8a70" text-anchor="start">GT 1 | crit. 5 | comp. 4</text>
<rect x="316" y="290" width="250" height="13" rx="7" fill="#e8e0d2"/>
<rect x="316" y="290" width="250" height="13" rx="7" fill="#1f8a70"/>
<text x="576" y="302" font-size="14" font-weight="800" fill="#172033" text-anchor="end">1.255</text>
<text x="576" y="322" font-size="11" font-weight="700" fill="#657184" text-anchor="end">CNPJs</text>
<text x="96" y="354" font-size="16" font-weight="800" fill="#172033" text-anchor="start">5.5 Isoladores Galvânicos</text>
<text x="96" y="376" font-size="13" font-weight="800" fill="#d16931" text-anchor="start">GT 3 | crit. 5 | comp. 4</text>
<rect x="316" y="362" width="250" height="13" rx="7" fill="#e8e0d2"/>
<rect x="316" y="362" width="250" height="13" rx="7" fill="#d16931"/>
<text x="576" y="374" font-size="14" font-weight="800" fill="#172033" text-anchor="end">1.255</text>
<text x="576" y="394" font-size="11" font-weight="700" fill="#657184" text-anchor="end">CNPJs</text>
<text x="96" y="426" font-size="16" font-weight="800" fill="#172033" text-anchor="start">6.4 Sensores de Gás / Detectores</text>
<text x="96" y="448" font-size="13" font-weight="800" fill="#1f8a70" text-anchor="start">GT 1 | crit. 5 | comp. 4</text>
<rect x="316" y="434" width="250" height="13" rx="7" fill="#e8e0d2"/>
<rect x="316" y="434" width="250" height="13" rx="7" fill="#1f8a70"/>
<text x="576" y="446" font-size="14" font-weight="800" fill="#172033" text-anchor="end">1.255</text>
<text x="576" y="466" font-size="11" font-weight="700" fill="#657184" text-anchor="end">CNPJs</text>
<text x="96" y="498" font-size="16" font-weight="800" fill="#172033" text-anchor="start">2.4 Carcaça da Célula (Latas / Caixas)</text>
<text x="96" y="520" font-size="13" font-weight="800" fill="#1f8a70" text-anchor="start">GT 1 | crit. 5 | comp. 4</text>
<rect x="316" y="506" width="250" height="13" rx="7" fill="#e8e0d2"/>
<rect x="316" y="506" width="102" height="13" rx="7" fill="#1f8a70"/>
<text x="576" y="518" font-size="14" font-weight="800" fill="#172033" text-anchor="end">513</text>
<text x="576" y="538" font-size="11" font-weight="700" fill="#657184" text-anchor="end">CNPJs</text>
<text x="96" y="570" font-size="16" font-weight="800" fill="#172033" text-anchor="start">1.2 Ânodos (Grafite)</text>
<text x="96" y="592" font-size="13" font-weight="800" fill="#1f8a70" text-anchor="start">GT 1 | crit. 5 | comp. 4</text>
<rect x="316" y="578" width="250" height="13" rx="7" fill="#e8e0d2"/>
<rect x="316" y="578" width="90" height="13" rx="7" fill="#1f8a70"/>
<text x="576" y="590" font-size="14" font-weight="800" fill="#172033" text-anchor="end">453</text>
<text x="576" y="610" font-size="11" font-weight="700" fill="#657184" text-anchor="end">CNPJs</text>
<text x="96" y="642" font-size="16" font-weight="800" fill="#172033" text-anchor="start">1.6 Materiais p/ Precursores</text>
<text x="96" y="664" font-size="13" font-weight="800" fill="#1f8a70" text-anchor="start">GT 1 | crit. 5 | comp. 4</text>
<rect x="316" y="650" width="250" height="13" rx="7" fill="#e8e0d2"/>
<rect x="316" y="650" width="90" height="13" rx="7" fill="#1f8a70"/>
<text x="576" y="662" font-size="14" font-weight="800" fill="#172033" text-anchor="end">453</text>
<text x="576" y="682" font-size="11" font-weight="700" fill="#657184" text-anchor="end">CNPJs</text>
<text x="96" y="714" font-size="16" font-weight="800" fill="#172033" text-anchor="start">1.3 Eletrólito</text>
<text x="96" y="736" font-size="13" font-weight="800" fill="#1f8a70" text-anchor="start">GT 1 | crit. 5 | comp. 4</text>
<rect x="316" y="722" width="250" height="13" rx="7" fill="#e8e0d2"/>
<rect x="316" y="722" width="75" height="13" rx="7" fill="#1f8a70"/>
<text x="576" y="734" font-size="14" font-weight="800" fill="#172033" text-anchor="end">377</text>
<text x="576" y="754" font-size="11" font-weight="700" fill="#657184" text-anchor="end">CNPJs</text>
<text x="96" y="786" font-size="16" font-weight="800" fill="#172033" text-anchor="start">2.3 Coletor de Corrente – Cátodo (Alumínio)</text>
<text x="96" y="808" font-size="13" font-weight="800" fill="#1f8a70" text-anchor="start">GT 1 | crit. 5 | comp. 4</text>
<rect x="316" y="794" width="250" height="13" rx="7" fill="#e8e0d2"/>
<rect x="316" y="794" width="61" height="13" rx="7" fill="#1f8a70"/>
<text x="576" y="806" font-size="14" font-weight="800" fill="#172033" text-anchor="end">310</text>
<text x="576" y="826" font-size="11" font-weight="700" fill="#657184" text-anchor="end">CNPJs</text>
<text x="96" y="858" font-size="16" font-weight="800" fill="#172033" text-anchor="start">6.2 Enrolamento de Bobinas</text>
<text x="96" y="880" font-size="13" font-weight="800" fill="#2c6bed" text-anchor="start">GT 2 | crit. 4 | comp. 4</text>
<rect x="316" y="866" width="250" height="13" rx="7" fill="#e8e0d2"/>
<rect x="316" y="866" width="123" height="13" rx="7" fill="#2c6bed"/>
<text x="576" y="878" font-size="14" font-weight="800" fill="#172033" text-anchor="end">622</text>
<text x="576" y="898" font-size="11" font-weight="700" fill="#657184" text-anchor="end">CNPJs</text>
<rect x="690" y="158" width="540" height="820" rx="10" fill="#ffffff" stroke="#d8d3c8"/>
<rect x="690" y="158" width="540" height="58" rx="10" fill="#d16931"/>
<text x="716" y="196" font-size="25" font-weight="800" fill="#ffffff" text-anchor="start">Desenvolver</text>
<text x="716" y="246" font-size="15" font-weight="600" fill="#657184" text-anchor="start">Elo crítico/complexo com base empresarial ainda limitada</text>
<text x="716" y="282" font-size="16" font-weight="800" fill="#172033" text-anchor="start">6.3 Contatores de Alta Tensão</text>
<text x="716" y="304" font-size="13" font-weight="800" fill="#1f8a70" text-anchor="start">GT 1 | crit. 5 | comp. 4</text>
<rect x="936" y="290" width="250" height="13" rx="7" fill="#e8e0d2"/>
<rect x="936" y="290" width="250" height="13" rx="7" fill="#1f8a70"/>
<text x="1196" y="302" font-size="14" font-weight="800" fill="#172033" text-anchor="end">221</text>
<text x="1196" y="322" font-size="11" font-weight="700" fill="#657184" text-anchor="end">CNPJs</text>
<text x="716" y="354" font-size="16" font-weight="800" fill="#172033" text-anchor="start">4.4 Conectores e Chicotes</text>
<text x="716" y="376" font-size="13" font-weight="800" fill="#2c6bed" text-anchor="start">GT 2 | crit. 5 | comp. 4</text>
<rect x="936" y="362" width="250" height="13" rx="7" fill="#e8e0d2"/>
<rect x="936" y="362" width="250" height="13" rx="7" fill="#2c6bed"/>
<text x="1196" y="374" font-size="14" font-weight="800" fill="#172033" text-anchor="end">221</text>
<text x="1196" y="394" font-size="11" font-weight="700" fill="#657184" text-anchor="end">CNPJs</text>
<text x="716" y="426" font-size="16" font-weight="800" fill="#172033" text-anchor="start">5.6 Relés Segurança</text>
<text x="716" y="448" font-size="13" font-weight="800" fill="#d16931" text-anchor="start">GT 3 | crit. 5 | comp. 4</text>
<rect x="936" y="434" width="250" height="13" rx="7" fill="#e8e0d2"/>
<rect x="936" y="434" width="250" height="13" rx="7" fill="#d16931"/>
<text x="1196" y="446" font-size="14" font-weight="800" fill="#172033" text-anchor="end">221</text>
<text x="1196" y="466" font-size="11" font-weight="700" fill="#657184" text-anchor="end">CNPJs</text>
<text x="716" y="498" font-size="16" font-weight="800" fill="#172033" text-anchor="start">5.2 Disjuntores</text>
<text x="716" y="520" font-size="13" font-weight="800" fill="#d16931" text-anchor="start">GT 3 | crit. 5 | comp. 4</text>
<rect x="936" y="506" width="250" height="13" rx="7" fill="#e8e0d2"/>
<rect x="936" y="506" width="250" height="13" rx="7" fill="#d16931"/>
<text x="1196" y="518" font-size="14" font-weight="800" fill="#172033" text-anchor="end">221</text>
<text x="1196" y="538" font-size="11" font-weight="700" fill="#657184" text-anchor="end">CNPJs</text>
<text x="716" y="570" font-size="16" font-weight="800" fill="#172033" text-anchor="start">5.1 Fusíveis HV</text>
<text x="716" y="592" font-size="13" font-weight="800" fill="#d16931" text-anchor="start">GT 3 | crit. 5 | comp. 4</text>
<rect x="936" y="578" width="250" height="13" rx="7" fill="#e8e0d2"/>
<rect x="936" y="578" width="250" height="13" rx="7" fill="#d16931"/>
<text x="1196" y="590" font-size="14" font-weight="800" fill="#172033" text-anchor="end">221</text>
<text x="1196" y="610" font-size="11" font-weight="700" fill="#657184" text-anchor="end">CNPJs</text>
<text x="716" y="642" font-size="16" font-weight="800" fill="#172033" text-anchor="start">5.3 Contatores HV</text>
<text x="716" y="664" font-size="13" font-weight="800" fill="#d16931" text-anchor="start">GT 3 | crit. 5 | comp. 4</text>
<rect x="936" y="650" width="250" height="13" rx="7" fill="#e8e0d2"/>
<rect x="936" y="650" width="250" height="13" rx="7" fill="#d16931"/>
<text x="1196" y="662" font-size="14" font-weight="800" fill="#172033" text-anchor="end">221</text>
<text x="1196" y="682" font-size="11" font-weight="700" fill="#657184" text-anchor="end">CNPJs</text>
<text x="716" y="714" font-size="16" font-weight="800" fill="#172033" text-anchor="start">4.4 Fiação / Cabos / Chicotes</text>
<text x="716" y="736" font-size="13" font-weight="800" fill="#1f8a70" text-anchor="start">GT 1 | crit. 5 | comp. 4</text>
<rect x="936" y="722" width="250" height="13" rx="7" fill="#e8e0d2"/>
<rect x="936" y="722" width="250" height="13" rx="7" fill="#1f8a70"/>
<text x="1196" y="734" font-size="14" font-weight="800" fill="#172033" text-anchor="end">221</text>
<text x="1196" y="754" font-size="11" font-weight="700" fill="#657184" text-anchor="end">CNPJs</text>
<text x="716" y="786" font-size="16" font-weight="800" fill="#172033" text-anchor="start">4.5 Relés / Contatores / Fusíveis</text>
<text x="716" y="808" font-size="13" font-weight="800" fill="#1f8a70" text-anchor="start">GT 1 | crit. 5 | comp. 4</text>
<rect x="936" y="794" width="250" height="13" rx="7" fill="#e8e0d2"/>
<rect x="936" y="794" width="250" height="13" rx="7" fill="#1f8a70"/>
<text x="1196" y="806" font-size="14" font-weight="800" fill="#172033" text-anchor="end">221</text>
<text x="1196" y="826" font-size="11" font-weight="700" fill="#657184" text-anchor="end">CNPJs</text>
<text x="716" y="858" font-size="16" font-weight="800" fill="#172033" text-anchor="start">6.1 Fusíveis</text>
<text x="716" y="880" font-size="13" font-weight="800" fill="#1f8a70" text-anchor="start">GT 1 | crit. 5 | comp. 4</text>
<rect x="936" y="866" width="250" height="13" rx="7" fill="#e8e0d2"/>
<rect x="936" y="866" width="250" height="13" rx="7" fill="#1f8a70"/>
<text x="1196" y="878" font-size="14" font-weight="800" fill="#172033" text-anchor="end">221</text>
<text x="1196" y="898" font-size="11" font-weight="700" fill="#657184" text-anchor="end">CNPJs</text>
<rect x="1310" y="158" width="540" height="820" rx="10" fill="#ffffff" stroke="#d8d3c8"/>
<rect x="1310" y="158" width="540" height="58" rx="10" fill="#b24b34"/>
<text x="1336" y="196" font-size="25" font-weight="800" fill="#ffffff" text-anchor="start">Gap crítico</text>
<text x="1336" y="246" font-size="15" font-weight="600" fill="#657184" text-anchor="start">Elo crítico/complexo sem CNPJs associados</text>
<text x="1336" y="282" font-size="16" font-weight="800" fill="#172033" text-anchor="start">1.1 Cátodos (NMC, LFP etc.)</text>
<text x="1336" y="304" font-size="13" font-weight="800" fill="#1f8a70" text-anchor="start">GT 1 | crit. 5 | comp. 4</text>
<rect x="1556" y="290" width="250" height="13" rx="7" fill="#e8e0d2"/>
<text x="1816" y="302" font-size="14" font-weight="800" fill="#172033" text-anchor="end">0</text>
<text x="1816" y="322" font-size="11" font-weight="700" fill="#657184" text-anchor="end">CNPJs</text>
<text x="1336" y="354" font-size="16" font-weight="800" fill="#172033" text-anchor="start">1.4 Aditivos</text>
<text x="1336" y="376" font-size="13" font-weight="800" fill="#1f8a70" text-anchor="start">GT 1 | crit. 5 | comp. 4</text>
<rect x="1556" y="362" width="250" height="13" rx="7" fill="#e8e0d2"/>
<text x="1816" y="374" font-size="14" font-weight="800" fill="#172033" text-anchor="end">0</text>
<text x="1816" y="394" font-size="11" font-weight="700" fill="#657184" text-anchor="end">CNPJs</text>
<text x="1336" y="426" font-size="16" font-weight="800" fill="#172033" text-anchor="start">1.5 Solventes</text>
<text x="1336" y="448" font-size="13" font-weight="800" fill="#1f8a70" text-anchor="start">GT 1 | crit. 5 | comp. 4</text>
<rect x="1556" y="434" width="250" height="13" rx="7" fill="#e8e0d2"/>
<text x="1816" y="446" font-size="14" font-weight="800" fill="#172033" text-anchor="end">0</text>
<text x="1816" y="466" font-size="11" font-weight="700" fill="#657184" text-anchor="end">CNPJs</text>
<text x="1336" y="498" font-size="16" font-weight="800" fill="#172033" text-anchor="start">4.1 Placas Eletrônicas (PCBA)</text>
<text x="1336" y="520" font-size="13" font-weight="800" fill="#1f8a70" text-anchor="start">GT 1 | crit. 5 | comp. 4</text>
<rect x="1556" y="506" width="250" height="13" rx="7" fill="#e8e0d2"/>
<text x="1816" y="518" font-size="14" font-weight="800" fill="#172033" text-anchor="end">0</text>
<text x="1816" y="538" font-size="11" font-weight="700" fill="#657184" text-anchor="end">CNPJs</text>
<text x="1336" y="570" font-size="16" font-weight="800" fill="#172033" text-anchor="start">4.2 Microcontroladores / Circuitos Integrad...</text>
<text x="1336" y="592" font-size="13" font-weight="800" fill="#1f8a70" text-anchor="start">GT 1 | crit. 5 | comp. 4</text>
<rect x="1556" y="578" width="250" height="13" rx="7" fill="#e8e0d2"/>
<text x="1816" y="590" font-size="14" font-weight="800" fill="#172033" text-anchor="end">0</text>
<text x="1816" y="610" font-size="11" font-weight="700" fill="#657184" text-anchor="end">CNPJs</text>
<text x="1336" y="642" font-size="16" font-weight="800" fill="#172033" text-anchor="start">4.3 Sensores (Corrente, Tensão, Temperatura)</text>
<text x="1336" y="664" font-size="13" font-weight="800" fill="#1f8a70" text-anchor="start">GT 1 | crit. 5 | comp. 4</text>
<rect x="1556" y="650" width="250" height="13" rx="7" fill="#e8e0d2"/>
<text x="1816" y="662" font-size="14" font-weight="800" fill="#172033" text-anchor="end">0</text>
<text x="1816" y="682" font-size="11" font-weight="700" fill="#657184" text-anchor="end">CNPJs</text>
<text x="1336" y="714" font-size="16" font-weight="800" fill="#172033" text-anchor="start">6.5 Materiais Retardantes de Chama</text>
<text x="1336" y="736" font-size="13" font-weight="800" fill="#1f8a70" text-anchor="start">GT 1 | crit. 5 | comp. 4</text>
<rect x="1556" y="722" width="250" height="13" rx="7" fill="#e8e0d2"/>
<text x="1816" y="734" font-size="14" font-weight="800" fill="#172033" text-anchor="end">0</text>
<text x="1816" y="754" font-size="11" font-weight="700" fill="#657184" text-anchor="end">CNPJs</text>
<text x="1336" y="786" font-size="16" font-weight="800" fill="#172033" text-anchor="start">1.2 Enrolamentos</text>
<text x="1336" y="808" font-size="13" font-weight="800" fill="#2c6bed" text-anchor="start">GT 2 | crit. 4 | comp. 4</text>
<rect x="1556" y="794" width="250" height="13" rx="7" fill="#e8e0d2"/>
<text x="1816" y="806" font-size="14" font-weight="800" fill="#172033" text-anchor="end">0</text>
<text x="1816" y="826" font-size="11" font-weight="700" fill="#657184" text-anchor="end">CNPJs</text>
<text x="1336" y="858" font-size="16" font-weight="800" fill="#172033" text-anchor="start">2.2 Ímãs Permanentes</text>
<text x="1336" y="880" font-size="13" font-weight="800" fill="#2c6bed" text-anchor="start">GT 2 | crit. 4 | comp. 4</text>
<rect x="1556" y="866" width="250" height="13" rx="7" fill="#e8e0d2"/>
<text x="1816" y="878" font-size="14" font-weight="800" fill="#172033" text-anchor="end">0</text>
<text x="1816" y="898" font-size="11" font-weight="700" fill="#657184" text-anchor="end">CNPJs</text>
<text x="70" y="1032" font-size="17" font-weight="500" fill="#596677" text-anchor="start">Uso recomendado: transformar cada coluna em ação estratégica distinta: escalar fornecedores, desenvolver capacidades ou atrair/P&amp;D.</text>
</svg>