<svg xmlns="http://www.w3.org/2000/svg" width="1920" height="1080" viewBox="0 0 1920 1080">
<rect width="1920" height="1080" fill="#f7f3ea"/>
<rect width="1920" height="1080" fill="#0f2f3a" opacity="0.035"/>
<text x="70" y="84" font-size="42" font-weight="800" fill="#172033" text-anchor="start">Capacidade existente versus lacunas da cadeia</text>
<text x="70" y="122" font-size="22" font-weight="500" fill="#4e5b6c" text-anchor="start">Resumo por GT para comunicar onde há base industrial e onde persistem elos sem cobertura</text>
<rect x="70" y="158" width="1780" height="820" rx="10" fill="#ffffff" stroke="#d8d3c8"/>
<rect x="118" y="212" width="500" height="58" rx="12" fill="#1f8a70"/>
<text x="368" y="249" font-size="20" font-weight="800" fill="#ffffff" text-anchor="middle">GT 1 | Baterias</text>
<text x="118" y="328" font-size="34" font-weight="800" fill="#172033" text-anchor="start">40</text>
<text x="202" y="319" font-size="16" font-weight="800" fill="#172033" text-anchor="start">componentes</text>
<rect x="202" y="332" width="340" height="12" rx="6" fill="#e8e0d2"/>
<rect x="202" y="332" width="340" height="12" rx="6" fill="#172033"/>
<text x="118" y="400" font-size="34" font-weight="800" fill="#734f96" text-anchor="start">21</text>
<text x="202" y="391" font-size="16" font-weight="800" fill="#172033" text-anchor="start">com alta critic./complex.</text>
<rect x="202" y="404" width="340" height="12" rx="6" fill="#e8e0d2"/>
<rect x="202" y="404" width="178" height="12" rx="6" fill="#734f96"/>
<text x="118" y="472" font-size="34" font-weight="800" fill="#1f8a70" text-anchor="start">17</text>
<text x="202" y="463" font-size="16" font-weight="800" fill="#172033" text-anchor="start">com alta capacidade</text>
<rect x="202" y="476" width="340" height="12" rx="6" fill="#e8e0d2"/>
<rect x="202" y="476" width="144" height="12" rx="6" fill="#1f8a70"/>
<text x="118" y="544" font-size="34" font-weight="800" fill="#b24b34" text-anchor="start">10</text>
<text x="202" y="535" font-size="16" font-weight="800" fill="#172033" text-anchor="start">sem CNPJs associados</text>
<rect x="202" y="548" width="340" height="12" rx="6" fill="#e8e0d2"/>
<rect x="202" y="548" width="85" height="12" rx="6" fill="#b24b34"/>
<text x="118" y="632" font-size="18" font-weight="800" fill="#1f6f64" text-anchor="start">Capacidades para adensar</text>
<text x="118" y="662" font-size="13" font-weight="700" fill="#293447" text-anchor="start">7.3 Terminais e Lugs (1.255)</text>
<text x="118" y="686" font-size="13" font-weight="700" fill="#293447" text-anchor="start">2.1 Separadores (1.255)</text>
<text x="118" y="710" font-size="13" font-weight="700" fill="#293447" text-anchor="start">7.4 Barreiras e Isoladores (1.255)</text>
<text x="118" y="734" font-size="13" font-weight="700" fill="#293447" text-anchor="start">5.5 Isolamentos Térmicos (1.255)</text>
<text x="118" y="778" font-size="18" font-weight="800" fill="#9b3f2e" text-anchor="start">Gaps para atração/P&amp;D</text>
<text x="118" y="808" font-size="13" font-weight="700" fill="#293447" text-anchor="start">1.1 Cátodos (NMC, LFP etc.)</text>
<text x="118" y="832" font-size="13" font-weight="700" fill="#293447" text-anchor="start">1.2 Ânodos (Grafite)</text>
<text x="118" y="856" font-size="13" font-weight="700" fill="#293447" text-anchor="start">1.4 Aditivos</text>
<text x="118" y="880" font-size="13" font-weight="700" fill="#293447" text-anchor="start">1.5 Solventes</text>
<rect x="703" y="212" width="500" height="58" rx="12" fill="#2c6bed"/>
<text x="953" y="249" font-size="20" font-weight="800" fill="#ffffff" text-anchor="middle">GT 2 | Máquinas elétricas</text>
<text x="703" y="328" font-size="34" font-weight="800" fill="#172033" text-anchor="start">43</text>
<text x="787" y="319" font-size="16" font-weight="800" fill="#172033" text-anchor="start">componentes</text>
<rect x="787" y="332" width="340" height="12" rx="6" fill="#e8e0d2"/>
<rect x="787" y="332" width="340" height="12" rx="6" fill="#172033"/>
<text x="703" y="400" font-size="34" font-weight="800" fill="#734f96" text-anchor="start">29</text>
<text x="787" y="391" font-size="16" font-weight="800" fill="#172033" text-anchor="start">com alta critic./complex.</text>
<rect x="787" y="404" width="340" height="12" rx="6" fill="#e8e0d2"/>
<rect x="787" y="404" width="229" height="12" rx="6" fill="#734f96"/>
<text x="703" y="472" font-size="34" font-weight="800" fill="#1f8a70" text-anchor="start">11</text>
<text x="787" y="463" font-size="16" font-weight="800" fill="#172033" text-anchor="start">com alta capacidade</text>
<rect x="787" y="476" width="340" height="12" rx="6" fill="#e8e0d2"/>
<rect x="787" y="476" width="86" height="12" rx="6" fill="#1f8a70"/>
<text x="703" y="544" font-size="34" font-weight="800" fill="#b24b34" text-anchor="start">13</text>
<text x="787" y="535" font-size="16" font-weight="800" fill="#172033" text-anchor="start">sem CNPJs associados</text>
<rect x="787" y="548" width="340" height="12" rx="6" fill="#e8e0d2"/>
<rect x="787" y="548" width="102" height="12" rx="6" fill="#b24b34"/>
<text x="703" y="632" font-size="18" font-weight="800" fill="#1f6f64" text-anchor="start">Capacidades para adensar</text>
<text x="703" y="662" font-size="13" font-weight="700" fill="#293447" text-anchor="start">3.2 Canais de Refrigeração (1.375)</text>
<text x="703" y="686" font-size="13" font-weight="700" fill="#293447" text-anchor="start">9.3 Tampas e Tampões (1.255)</text>
<text x="703" y="710" font-size="13" font-weight="700" fill="#293447" text-anchor="start">5.5 Parafusos e Fixadores (690)</text>
<text x="703" y="734" font-size="13" font-weight="700" fill="#293447" text-anchor="start">3.3 Ventiladores / Hélices (622)</text>
<text x="703" y="778" font-size="18" font-weight="800" fill="#9b3f2e" text-anchor="start">Gaps para atração/P&amp;D</text>
<text x="703" y="808" font-size="13" font-weight="700" fill="#293447" text-anchor="start">1.2 Enrolamentos</text>
<text x="703" y="832" font-size="13" font-weight="700" fill="#293447" text-anchor="start">1.3 Isolação Elétrica</text>
<text x="703" y="856" font-size="13" font-weight="700" fill="#293447" text-anchor="start">1.4 Terminais e Conexões</text>
<text x="703" y="880" font-size="13" font-weight="700" fill="#293447" text-anchor="start">2.2 Ímãs Permanentes</text>
<rect x="1288" y="212" width="500" height="58" rx="12" fill="#d16931"/>
<text x="1538" y="249" font-size="20" font-weight="800" fill="#ffffff" text-anchor="middle">GT 3 | Inversores/conversores</text>
<text x="1288" y="328" font-size="34" font-weight="800" fill="#172033" text-anchor="start">49</text>
<text x="1372" y="319" font-size="16" font-weight="800" fill="#172033" text-anchor="start">componentes</text>
<rect x="1372" y="332" width="340" height="12" rx="6" fill="#e8e0d2"/>
<rect x="1372" y="332" width="340" height="12" rx="6" fill="#172033"/>
<text x="1288" y="400" font-size="34" font-weight="800" fill="#734f96" text-anchor="start">25</text>
<text x="1372" y="391" font-size="16" font-weight="800" fill="#172033" text-anchor="start">com alta critic./complex.</text>
<rect x="1372" y="404" width="340" height="12" rx="6" fill="#e8e0d2"/>
<rect x="1372" y="404" width="173" height="12" rx="6" fill="#734f96"/>
<text x="1288" y="472" font-size="34" font-weight="800" fill="#1f8a70" text-anchor="start">8</text>
<text x="1372" y="463" font-size="16" font-weight="800" fill="#172033" text-anchor="start">com alta capacidade</text>
<rect x="1372" y="476" width="340" height="12" rx="6" fill="#e8e0d2"/>
<rect x="1372" y="476" width="55" height="12" rx="6" fill="#1f8a70"/>
<text x="1288" y="544" font-size="34" font-weight="800" fill="#b24b34" text-anchor="start">6</text>
<text x="1372" y="535" font-size="16" font-weight="800" fill="#172033" text-anchor="start">sem CNPJs associados</text>
<rect x="1372" y="548" width="340" height="12" rx="6" fill="#e8e0d2"/>
<rect x="1372" y="548" width="41" height="12" rx="6" fill="#b24b34"/>
<text x="1288" y="632" font-size="18" font-weight="800" fill="#1f6f64" text-anchor="start">Capacidades para adensar</text>
<text x="1288" y="662" font-size="13" font-weight="700" fill="#293447" text-anchor="start">8.5 Fitas e Isolantes (1.255)</text>
<text x="1288" y="686" font-size="13" font-weight="700" fill="#293447" text-anchor="start">5.5 Isoladores Galvânicos (1.255)</text>
<text x="1288" y="710" font-size="13" font-weight="700" fill="#293447" text-anchor="start">8.6 Parafusos / Fixadores (690)</text>
<text x="1288" y="734" font-size="13" font-weight="700" fill="#293447" text-anchor="start">4.5 Ventoinhas (622)</text>
<text x="1288" y="778" font-size="18" font-weight="800" fill="#9b3f2e" text-anchor="start">Gaps para atração/P&amp;D</text>
<text x="1288" y="808" font-size="13" font-weight="700" fill="#293447" text-anchor="start">1.2 SiC MOSFET</text>
<text x="1288" y="832" font-size="13" font-weight="700" fill="#293447" text-anchor="start">1.3 Diodos Rápidos</text>
<text x="1288" y="856" font-size="13" font-weight="700" fill="#293447" text-anchor="start">2.6 Varistores (MOV)</text>
<text x="1288" y="880" font-size="13" font-weight="700" fill="#293447" text-anchor="start">3.4 PCB Multicamadas</text>
<text x="118" y="948" font-size="18" font-weight="500" fill="#596677" text-anchor="start">Leitura: os três GTs têm capacidade potencial, mas os gaps se concentram em elos específicos de maior exigência tecnológica.</text>
</svg>