<svg xmlns="http://www.w3.org/2000/svg" width="1920" height="1080" viewBox="0 0 1920 1080">
<rect width="1920" height="1080" fill="#f6f2ea"/>
<rect width="1920" height="1080" fill="#e7efff" opacity="0.56"/>
<rect x="0" y="0" width="1920" height="18" fill="#2c6bed"/>
<text x="72" y="82" font-size="46" font-weight="800" fill="#172033" text-anchor="start">Sankey ponderado por criticidade x complexidade</text>
<text x="72" y="124" font-size="30" font-weight="800" fill="#2c6bed" text-anchor="start">GT 2 – Máquinas Elétricas</text>
<text x="840" y="124" font-size="20" font-weight="500" fill="#4a5668" text-anchor="start">41 NCMs | 9 subcomponentes | 43 componentes | peso total 680</text>
<rect x="42" y="148" width="256" height="40" rx="10" fill="#2c6bed"/>
<text x="170" y="175" font-size="20" font-weight="800" fill="#ffffff" text-anchor="middle">NCM</text>
<rect x="632" y="148" width="256" height="40" rx="10" fill="#2c6bed"/>
<text x="760" y="175" font-size="20" font-weight="800" fill="#ffffff" text-anchor="middle">Subcomponente</text>
<rect x="1302" y="148" width="256" height="40" rx="10" fill="#2c6bed"/>
<text x="1430" y="175" font-size="20" font-weight="800" fill="#ffffff" text-anchor="middle">Componente</text>
<path d="M184.0,382.3 C460.5,382.3 483.5,913.8 760.0,913.8" fill="none" stroke="#2c6bed" stroke-width="7.97" stroke-opacity="0.180" stroke-linecap="round"/>
<path d="M184.0,402.6 C460.5,402.6 483.5,701.5 760.0,701.5" fill="none" stroke="#2c6bed" stroke-width="7.97" stroke-opacity="0.180" stroke-linecap="round"/>
<path d="M184.0,422.8 C460.5,422.8 483.5,894.5 760.0,894.5" fill="none" stroke="#2c6bed" stroke-width="7.97" stroke-opacity="0.180" stroke-linecap="round"/>
<path d="M184.0,443.0 C460.5,443.0 483.5,875.2 760.0,875.2" fill="none" stroke="#2c6bed" stroke-width="7.97" stroke-opacity="0.180" stroke-linecap="round"/>
<path d="M184.0,746.7 C460.5,746.7 483.5,373.4 760.0,373.4" fill="none" stroke="#2c6bed" stroke-width="7.02" stroke-opacity="0.180" stroke-linecap="round"/>
<path d="M184.0,463.3 C460.5,463.3 483.5,238.3 760.0,238.3" fill="none" stroke="#2c6bed" stroke-width="7.97" stroke-opacity="0.180" stroke-linecap="round"/>
<path d="M184.0,868.2 C460.5,868.2 483.5,971.7 760.0,971.7" fill="none" stroke="#2c6bed" stroke-width="5.23" stroke-opacity="0.180" stroke-linecap="round"/>
<path d="M184.0,888.4 C460.5,888.4 483.5,547.1 760.0,547.1" fill="none" stroke="#2c6bed" stroke-width="5.23" stroke-opacity="0.180" stroke-linecap="round"/>
<path d="M184.0,483.5 C460.5,483.5 483.5,238.3 760.0,238.3" fill="none" stroke="#2c6bed" stroke-width="7.97" stroke-opacity="0.180" stroke-linecap="round"/>
<path d="M184.0,200.1 C460.5,200.1 483.5,199.7 760.0,199.7" fill="none" stroke="#2c6bed" stroke-width="7.97" stroke-opacity="0.180" stroke-linecap="round"/>
<path d="M184.0,200.1 C460.5,200.1 483.5,276.9 760.0,276.9" fill="none" stroke="#2c6bed" stroke-width="7.97" stroke-opacity="0.180" stroke-linecap="round"/>
<path d="M184.0,200.1 C460.5,200.1 483.5,817.3 760.0,817.3" fill="none" stroke="#2c6bed" stroke-width="7.97" stroke-opacity="0.180" stroke-linecap="round"/>
<path d="M184.0,503.8 C460.5,503.8 483.5,199.7 760.0,199.7" fill="none" stroke="#2c6bed" stroke-width="7.97" stroke-opacity="0.180" stroke-linecap="round"/>
<path d="M184.0,240.6 C460.5,240.6 483.5,219.0 760.0,219.0" fill="none" stroke="#2c6bed" stroke-width="7.97" stroke-opacity="0.180" stroke-linecap="round"/>
<path d="M184.0,240.6 C460.5,240.6 483.5,315.5 760.0,315.5" fill="none" stroke="#2c6bed" stroke-width="7.97" stroke-opacity="0.180" stroke-linecap="round"/>
<path d="M184.0,260.9 C460.5,260.9 483.5,219.0 760.0,219.0" fill="none" stroke="#2c6bed" stroke-width="7.97" stroke-opacity="0.180" stroke-linecap="round"/>
<path d="M184.0,260.9 C460.5,260.9 483.5,315.5 760.0,315.5" fill="none" stroke="#2c6bed" stroke-width="7.97" stroke-opacity="0.180" stroke-linecap="round"/>
<path d="M184.0,908.7 C460.5,908.7 483.5,585.7 760.0,585.7" fill="none" stroke="#2c6bed" stroke-width="5.23" stroke-opacity="0.180" stroke-linecap="round"/>
<path d="M184.0,767.0 C460.5,767.0 483.5,373.4 760.0,373.4" fill="none" stroke="#2c6bed" stroke-width="7.02" stroke-opacity="0.180" stroke-linecap="round"/>
<path d="M184.0,787.2 C460.5,787.2 483.5,508.5 760.0,508.5" fill="none" stroke="#2c6bed" stroke-width="5.23" stroke-opacity="0.180" stroke-linecap="round"/>
<path d="M184.0,787.2 C460.5,787.2 483.5,991.0 760.0,991.0" fill="none" stroke="#2c6bed" stroke-width="5.23" stroke-opacity="0.180" stroke-linecap="round"/>
<path d="M184.0,524.0 C460.5,524.0 483.5,257.6 760.0,257.6" fill="none" stroke="#2c6bed" stroke-width="7.97" stroke-opacity="0.180" stroke-linecap="round"/>
<path d="M184.0,544.3 C460.5,544.3 483.5,836.6 760.0,836.6" fill="none" stroke="#2c6bed" stroke-width="7.97" stroke-opacity="0.180" stroke-linecap="round"/>
<path d="M184.0,807.4 C460.5,807.4 483.5,354.1 760.0,354.1" fill="none" stroke="#2c6bed" stroke-width="7.02" stroke-opacity="0.180" stroke-linecap="round"/>
<path d="M184.0,928.9 C460.5,928.9 483.5,1010.3 760.0,1010.3" fill="none" stroke="#2c6bed" stroke-width="5.23" stroke-opacity="0.180" stroke-linecap="round"/>
<path d="M184.0,564.5 C460.5,564.5 483.5,605.0 760.0,605.0" fill="none" stroke="#2c6bed" stroke-width="7.97" stroke-opacity="0.180" stroke-linecap="round"/>
<path d="M184.0,827.7 C460.5,827.7 483.5,392.7 760.0,392.7" fill="none" stroke="#2c6bed" stroke-width="7.02" stroke-opacity="0.180" stroke-linecap="round"/>
<path d="M184.0,847.9 C460.5,847.9 483.5,412.0 760.0,412.0" fill="none" stroke="#2c6bed" stroke-width="7.02" stroke-opacity="0.180" stroke-linecap="round"/>
<path d="M184.0,584.8 C460.5,584.8 483.5,662.9 760.0,662.9" fill="none" stroke="#2c6bed" stroke-width="7.97" stroke-opacity="0.180" stroke-linecap="round"/>
<path d="M184.0,281.1 C460.5,281.1 483.5,624.3 760.0,624.3" fill="none" stroke="#2c6bed" stroke-width="7.97" stroke-opacity="0.180" stroke-linecap="round"/>
<path d="M184.0,281.1 C460.5,281.1 483.5,643.6 760.0,643.6" fill="none" stroke="#2c6bed" stroke-width="7.97" stroke-opacity="0.180" stroke-linecap="round"/>
<path d="M184.0,949.1 C460.5,949.1 483.5,527.8 760.0,527.8" fill="none" stroke="#2c6bed" stroke-width="5.23" stroke-opacity="0.180" stroke-linecap="round"/>
<path d="M184.0,605.0 C460.5,605.0 483.5,334.8 760.0,334.8" fill="none" stroke="#2c6bed" stroke-width="7.97" stroke-opacity="0.180" stroke-linecap="round"/>
<path d="M184.0,969.4 C460.5,969.4 483.5,566.4 760.0,566.4" fill="none" stroke="#2c6bed" stroke-width="5.23" stroke-opacity="0.180" stroke-linecap="round"/>
<path d="M184.0,301.3 C460.5,301.3 483.5,296.2 760.0,296.2" fill="none" stroke="#2c6bed" stroke-width="7.97" stroke-opacity="0.180" stroke-linecap="round"/>
<path d="M184.0,301.3 C460.5,301.3 483.5,855.9 760.0,855.9" fill="none" stroke="#2c6bed" stroke-width="7.97" stroke-opacity="0.180" stroke-linecap="round"/>
<path d="M184.0,321.6 C460.5,321.6 483.5,450.6 760.0,450.6" fill="none" stroke="#2c6bed" stroke-width="8.81" stroke-opacity="0.180" stroke-linecap="round"/>
<path d="M184.0,341.8 C460.5,341.8 483.5,469.9 760.0,469.9" fill="none" stroke="#2c6bed" stroke-width="8.81" stroke-opacity="0.180" stroke-linecap="round"/>
<path d="M184.0,989.6 C460.5,989.6 483.5,952.4 760.0,952.4" fill="none" stroke="#2c6bed" stroke-width="5.23" stroke-opacity="0.180" stroke-linecap="round"/>
<path d="M184.0,625.2 C460.5,625.2 483.5,257.6 760.0,257.6" fill="none" stroke="#2c6bed" stroke-width="7.97" stroke-opacity="0.180" stroke-linecap="round"/>
<path d="M184.0,1009.9 C460.5,1009.9 483.5,933.1 760.0,933.1" fill="none" stroke="#2c6bed" stroke-width="5.23" stroke-opacity="0.180" stroke-linecap="round"/>
<path d="M184.0,362.1 C460.5,362.1 483.5,489.2 760.0,489.2" fill="none" stroke="#2c6bed" stroke-width="8.81" stroke-opacity="0.180" stroke-linecap="round"/>
<path d="M184.0,645.5 C460.5,645.5 483.5,759.4 760.0,759.4" fill="none" stroke="#2c6bed" stroke-width="7.97" stroke-opacity="0.180" stroke-linecap="round"/>
<path d="M184.0,665.7 C460.5,665.7 483.5,740.1 760.0,740.1" fill="none" stroke="#2c6bed" stroke-width="7.97" stroke-opacity="0.180" stroke-linecap="round"/>
<path d="M184.0,686.0 C460.5,686.0 483.5,778.7 760.0,778.7" fill="none" stroke="#2c6bed" stroke-width="7.97" stroke-opacity="0.180" stroke-linecap="round"/>
<path d="M184.0,706.2 C460.5,706.2 483.5,720.8 760.0,720.8" fill="none" stroke="#2c6bed" stroke-width="7.97" stroke-opacity="0.180" stroke-linecap="round"/>
<path d="M184.0,726.5 C460.5,726.5 483.5,682.2 760.0,682.2" fill="none" stroke="#2c6bed" stroke-width="7.97" stroke-opacity="0.180" stroke-linecap="round"/>
<path d="M184.0,220.4 C460.5,220.4 483.5,431.3 760.0,431.3" fill="none" stroke="#2c6bed" stroke-width="8.81" stroke-opacity="0.180" stroke-linecap="round"/>
<path d="M184.0,220.4 C460.5,220.4 483.5,798.0 760.0,798.0" fill="none" stroke="#2c6bed" stroke-width="7.97" stroke-opacity="0.180" stroke-linecap="round"/>
<path d="M774.0,199.7 C1088.9,199.7 1115.1,236.1 1430.0,236.1" fill="none" stroke="#2c6bed" stroke-width="10.90" stroke-opacity="0.180" stroke-linecap="round"/>
<path d="M774.0,219.0 C1088.9,219.0 1115.1,236.1 1430.0,236.1" fill="none" stroke="#2c6bed" stroke-width="10.90" stroke-opacity="0.180" stroke-linecap="round"/>
<path d="M774.0,238.3 C1088.9,238.3 1115.1,236.1 1430.0,236.1" fill="none" stroke="#2c6bed" stroke-width="10.90" stroke-opacity="0.180" stroke-linecap="round"/>
<path d="M774.0,257.6 C1088.9,257.6 1115.1,236.1 1430.0,236.1" fill="none" stroke="#2c6bed" stroke-width="10.90" stroke-opacity="0.180" stroke-linecap="round"/>
<path d="M774.0,276.9 C1088.9,276.9 1115.1,328.3 1430.0,328.3" fill="none" stroke="#2c6bed" stroke-width="7.97" stroke-opacity="0.180" stroke-linecap="round"/>
<path d="M774.0,296.2 C1088.9,296.2 1115.1,328.3 1430.0,328.3" fill="none" stroke="#2c6bed" stroke-width="7.97" stroke-opacity="0.180" stroke-linecap="round"/>
<path d="M774.0,315.5 C1088.9,315.5 1115.1,328.3 1430.0,328.3" fill="none" stroke="#2c6bed" stroke-width="10.90" stroke-opacity="0.180" stroke-linecap="round"/>
<path d="M774.0,334.8 C1088.9,334.8 1115.1,328.3 1430.0,328.3" fill="none" stroke="#2c6bed" stroke-width="7.97" stroke-opacity="0.180" stroke-linecap="round"/>
<path d="M774.0,354.1 C1088.9,354.1 1115.1,420.6 1430.0,420.6" fill="none" stroke="#2c6bed" stroke-width="7.02" stroke-opacity="0.180" stroke-linecap="round"/>
<path d="M774.0,373.4 C1088.9,373.4 1115.1,420.6 1430.0,420.6" fill="none" stroke="#2c6bed" stroke-width="9.56" stroke-opacity="0.180" stroke-linecap="round"/>
<path d="M774.0,392.7 C1088.9,392.7 1115.1,420.6 1430.0,420.6" fill="none" stroke="#2c6bed" stroke-width="7.02" stroke-opacity="0.180" stroke-linecap="round"/>
<path d="M774.0,412.0 C1088.9,412.0 1115.1,420.6 1430.0,420.6" fill="none" stroke="#2c6bed" stroke-width="7.02" stroke-opacity="0.180" stroke-linecap="round"/>
<path d="M774.0,431.3 C1088.9,431.3 1115.1,512.8 1430.0,512.8" fill="none" stroke="#2c6bed" stroke-width="8.81" stroke-opacity="0.180" stroke-linecap="round"/>
<path d="M774.0,450.6 C1088.9,450.6 1115.1,512.8 1430.0,512.8" fill="none" stroke="#2c6bed" stroke-width="8.81" stroke-opacity="0.180" stroke-linecap="round"/>
<path d="M774.0,469.9 C1088.9,469.9 1115.1,512.8 1430.0,512.8" fill="none" stroke="#2c6bed" stroke-width="8.81" stroke-opacity="0.180" stroke-linecap="round"/>
<path d="M774.0,489.2 C1088.9,489.2 1115.1,512.8 1430.0,512.8" fill="none" stroke="#2c6bed" stroke-width="8.81" stroke-opacity="0.180" stroke-linecap="round"/>
<path d="M774.0,508.5 C1088.9,508.5 1115.1,605.0 1430.0,605.0" fill="none" stroke="#2c6bed" stroke-width="5.23" stroke-opacity="0.180" stroke-linecap="round"/>
<path d="M774.0,527.8 C1088.9,527.8 1115.1,605.0 1430.0,605.0" fill="none" stroke="#2c6bed" stroke-width="5.23" stroke-opacity="0.180" stroke-linecap="round"/>
<path d="M774.0,547.1 C1088.9,547.1 1115.1,605.0 1430.0,605.0" fill="none" stroke="#2c6bed" stroke-width="5.23" stroke-opacity="0.180" stroke-linecap="round"/>
<path d="M774.0,566.4 C1088.9,566.4 1115.1,605.0 1430.0,605.0" fill="none" stroke="#2c6bed" stroke-width="5.23" stroke-opacity="0.180" stroke-linecap="round"/>
<path d="M774.0,585.7 C1088.9,585.7 1115.1,605.0 1430.0,605.0" fill="none" stroke="#2c6bed" stroke-width="5.23" stroke-opacity="0.180" stroke-linecap="round"/>
<path d="M774.0,605.0 C1088.9,605.0 1115.1,697.2 1430.0,697.2" fill="none" stroke="#2c6bed" stroke-width="7.97" stroke-opacity="0.180" stroke-linecap="round"/>
<path d="M774.0,624.3 C1088.9,624.3 1115.1,697.2 1430.0,697.2" fill="none" stroke="#2c6bed" stroke-width="7.97" stroke-opacity="0.180" stroke-linecap="round"/>
<path d="M774.0,643.6 C1088.9,643.6 1115.1,697.2 1430.0,697.2" fill="none" stroke="#2c6bed" stroke-width="7.97" stroke-opacity="0.180" stroke-linecap="round"/>
<path d="M774.0,662.9 C1088.9,662.9 1115.1,697.2 1430.0,697.2" fill="none" stroke="#2c6bed" stroke-width="7.97" stroke-opacity="0.180" stroke-linecap="round"/>
<path d="M774.0,682.2 C1088.9,682.2 1115.1,697.2 1430.0,697.2" fill="none" stroke="#2c6bed" stroke-width="7.97" stroke-opacity="0.180" stroke-linecap="round"/>
<path d="M774.0,701.5 C1088.9,701.5 1115.1,697.2 1430.0,697.2" fill="none" stroke="#2c6bed" stroke-width="7.97" stroke-opacity="0.180" stroke-linecap="round"/>
<path d="M774.0,720.8 C1088.9,720.8 1115.1,789.4 1430.0,789.4" fill="none" stroke="#2c6bed" stroke-width="7.97" stroke-opacity="0.180" stroke-linecap="round"/>
<path d="M774.0,740.1 C1088.9,740.1 1115.1,789.4 1430.0,789.4" fill="none" stroke="#2c6bed" stroke-width="7.97" stroke-opacity="0.180" stroke-linecap="round"/>
<path d="M774.0,759.4 C1088.9,759.4 1115.1,789.4 1430.0,789.4" fill="none" stroke="#2c6bed" stroke-width="7.97" stroke-opacity="0.180" stroke-linecap="round"/>
<path d="M774.0,778.7 C1088.9,778.7 1115.1,789.4 1430.0,789.4" fill="none" stroke="#2c6bed" stroke-width="7.97" stroke-opacity="0.180" stroke-linecap="round"/>
<path d="M774.0,798.0 C1088.9,798.0 1115.1,789.4 1430.0,789.4" fill="none" stroke="#2c6bed" stroke-width="7.97" stroke-opacity="0.180" stroke-linecap="round"/>
<path d="M774.0,817.3 C1088.9,817.3 1115.1,881.7 1430.0,881.7" fill="none" stroke="#2c6bed" stroke-width="7.97" stroke-opacity="0.180" stroke-linecap="round"/>
<path d="M774.0,836.6 C1088.9,836.6 1115.1,881.7 1430.0,881.7" fill="none" stroke="#2c6bed" stroke-width="7.97" stroke-opacity="0.180" stroke-linecap="round"/>
<path d="M774.0,855.9 C1088.9,855.9 1115.1,881.7 1430.0,881.7" fill="none" stroke="#2c6bed" stroke-width="7.97" stroke-opacity="0.180" stroke-linecap="round"/>
<path d="M774.0,875.2 C1088.9,875.2 1115.1,881.7 1430.0,881.7" fill="none" stroke="#2c6bed" stroke-width="7.97" stroke-opacity="0.180" stroke-linecap="round"/>
<path d="M774.0,894.5 C1088.9,894.5 1115.1,881.7 1430.0,881.7" fill="none" stroke="#2c6bed" stroke-width="7.97" stroke-opacity="0.180" stroke-linecap="round"/>
<path d="M774.0,913.8 C1088.9,913.8 1115.1,881.7 1430.0,881.7" fill="none" stroke="#2c6bed" stroke-width="7.97" stroke-opacity="0.180" stroke-linecap="round"/>
<path d="M774.0,933.1 C1088.9,933.1 1115.1,973.9 1430.0,973.9" fill="none" stroke="#2c6bed" stroke-width="5.23" stroke-opacity="0.180" stroke-linecap="round"/>
<path d="M774.0,952.4 C1088.9,952.4 1115.1,973.9 1430.0,973.9" fill="none" stroke="#2c6bed" stroke-width="5.23" stroke-opacity="0.180" stroke-linecap="round"/>
<path d="M774.0,971.7 C1088.9,971.7 1115.1,973.9 1430.0,973.9" fill="none" stroke="#2c6bed" stroke-width="5.23" stroke-opacity="0.180" stroke-linecap="round"/>
<path d="M774.0,991.0 C1088.9,991.0 1115.1,973.9 1430.0,973.9" fill="none" stroke="#2c6bed" stroke-width="5.23" stroke-opacity="0.180" stroke-linecap="round"/>
<path d="M774.0,1010.3 C1088.9,1010.3 1115.1,973.9 1430.0,973.9" fill="none" stroke="#2c6bed" stroke-width="5.23" stroke-opacity="0.180" stroke-linecap="round"/>
<g><title>72251100 - Produtos laminados planos de ferro ou aço não ligado</title>
<rect x="170" y="181.62" width="14" height="37.00" rx="3" fill="#2c6bed"/>
<text x="158" y="203" font-size="14" font-weight="700" fill="#293447" text-anchor="end">72251100</text>
</g>
<g><title>90318099 - Outros aparelhos e dispositivos de medida ou controle</title>
<rect x="170" y="203.88" width="14" height="32.98" rx="3" fill="#2c6bed"/>
<text x="158" y="223" font-size="14" font-weight="700" fill="#293447" text-anchor="end">90318099</text>
</g>
<g><title>72441100 - Fio de cobre refinado, com maior dimensão da seção ≤ 6 mm</title>
<rect x="170" y="224.86" width="14" height="31.49" rx="3" fill="#2c6bed"/>
<text x="158" y="243" font-size="14" font-weight="700" fill="#293447" text-anchor="end">72441100</text>
</g>
<g><title>72444100 - Fio de cobre refinado, com seção &gt; 6 mm</title>
<rect x="170" y="245.11" width="14" height="31.49" rx="3" fill="#2c6bed"/>
<text x="158" y="263" font-size="14" font-weight="700" fill="#293447" text-anchor="end">72444100</text>
</g>
<g><title>84798999 - Outras máquinas e aparelhos para uso geral na indústria</title>
<rect x="170" y="265.35" width="14" height="31.49" rx="3" fill="#2c6bed"/>
<text x="158" y="284" font-size="14" font-weight="700" fill="#293447" text-anchor="end">84798999</text>
</g>
<g><title>85051190 - Ímãs permanentes de metais comuns (NdFeB)</title>
<rect x="170" y="285.59" width="14" height="31.49" rx="3" fill="#2c6bed"/>
<text x="158" y="304" font-size="14" font-weight="700" fill="#293447" text-anchor="end">85051190</text>
</g>
<g><title>85334099 - Outros dispositivos de semicondutores</title>
<rect x="170" y="308.40" width="14" height="26.36" rx="3" fill="#2c6bed"/>
<text x="158" y="324" font-size="14" font-weight="700" fill="#293447" text-anchor="end">85334099</text>
</g>
<g><title>85340090 - Placas, painéis, consoles e suportes, para comando ou distribuição</title>
<rect x="170" y="328.65" width="14" height="26.36" rx="3" fill="#2c6bed"/>
<text x="158" y="344" font-size="14" font-weight="700" fill="#293447" text-anchor="end">85340090</text>
</g>
<g><title>85444200 - Fios e cabos, com conectores</title>
<rect x="170" y="348.89" width="14" height="26.36" rx="3" fill="#2c6bed"/>
<text x="158" y="365" font-size="14" font-weight="700" fill="#293447" text-anchor="end">85444200</text>
</g>
<g><title>28042100 - Hidrogênio, argônio, hélio, neônio, criptônio, xenônio, radônio</title>
<rect x="170" y="370.16" width="14" height="24.32" rx="3" fill="#2c6bed"/>
<text x="158" y="385" font-size="14" font-weight="700" fill="#293447" text-anchor="end">28042100</text>
</g>
<g><title>32089010 - Vernizes e produtos semelhantes</title>
<rect x="170" y="390.40" width="14" height="24.32" rx="3" fill="#2c6bed"/>
<text x="158" y="405" font-size="14" font-weight="700" fill="#293447" text-anchor="end">32089010</text>
</g>
<g><title>35069190 - Adesivos à base de polímeros</title>
<rect x="170" y="410.64" width="14" height="24.32" rx="3" fill="#2c6bed"/>
<text x="158" y="425" font-size="14" font-weight="700" fill="#293447" text-anchor="end">35069190</text>
</g>
<g><title>35072080 - Resinas epóxi</title>
<rect x="170" y="430.89" width="14" height="24.32" rx="3" fill="#2c6bed"/>
<text x="158" y="446" font-size="14" font-weight="700" fill="#293447" text-anchor="end">35072080</text>
</g>
<g><title>39206200 - Filmes de poliéster</title>
<rect x="170" y="451.13" width="14" height="24.32" rx="3" fill="#2c6bed"/>
<text x="158" y="466" font-size="14" font-weight="700" fill="#293447" text-anchor="end">39206200</text>
</g>
<g><title>48209000 - Papéis isolantes</title>
<rect x="170" y="471.38" width="14" height="24.32" rx="3" fill="#2c6bed"/>
<text x="158" y="486" font-size="14" font-weight="700" fill="#293447" text-anchor="end">48209000</text>
</g>
<g><title>72251900 - Outros produtos laminados planos de ferro ou aço</title>
<rect x="170" y="491.62" width="14" height="24.32" rx="3" fill="#2c6bed"/>
<text x="158" y="506" font-size="14" font-weight="700" fill="#293447" text-anchor="end">72251900</text>
</g>
<g><title>74071000 - Barras e perfis de cobre refinado</title>
<rect x="170" y="511.86" width="14" height="24.32" rx="3" fill="#2c6bed"/>
<text x="158" y="527" font-size="14" font-weight="700" fill="#293447" text-anchor="end">74071000</text>
</g>
<g><title>74081100 - Folhas de cobre</title>
<rect x="170" y="532.11" width="14" height="24.32" rx="3" fill="#2c6bed"/>
<text x="158" y="547" font-size="14" font-weight="700" fill="#293447" text-anchor="end">74081100</text>
</g>
<g><title>82073000 - Ferramentas intercambiáveis para máquinas-ferramenta</title>
<rect x="170" y="552.35" width="14" height="24.32" rx="3" fill="#2c6bed"/>
<text x="158" y="567" font-size="14" font-weight="700" fill="#293447" text-anchor="end">82073000</text>
</g>
<g><title>84571010 - Centros de usinagem</title>
<rect x="170" y="572.60" width="14" height="24.32" rx="3" fill="#2c6bed"/>
<text x="158" y="587" font-size="14" font-weight="700" fill="#293447" text-anchor="end">84571010</text>
</g>
<g><title>84831010 - Eixos e vibraequins</title>
<rect x="170" y="592.84" width="14" height="24.32" rx="3" fill="#2c6bed"/>
<text x="158" y="608" font-size="14" font-weight="700" fill="#293447" text-anchor="end">84831010</text>
</g>
<g><title>85369090 - Outros aparelhos para conexão de circuitos elétricos</title>
<rect x="170" y="613.08" width="14" height="24.32" rx="3" fill="#2c6bed"/>
<text x="158" y="628" font-size="14" font-weight="700" fill="#293447" text-anchor="end">85369090</text>
</g>
<g><title>90221090 - Outros aparelhos e dispositivos automáticos para regulação</title>
<rect x="170" y="633.33" width="14" height="24.32" rx="3" fill="#2c6bed"/>
<text x="158" y="648" font-size="14" font-weight="700" fill="#293447" text-anchor="end">90221090</text>
</g>
<g><title>90241090 - Máquinas de ensaio de tração, compressão, flexão</title>
<rect x="170" y="653.57" width="14" height="24.32" rx="3" fill="#2c6bed"/>
<text x="158" y="668" font-size="14" font-weight="700" fill="#293447" text-anchor="end">90241090</text>
</g>
<g><title>90278010 - Aparelhos para análise de vibrações</title>
<rect x="170" y="673.82" width="14" height="24.32" rx="3" fill="#2c6bed"/>
<text x="158" y="688" font-size="14" font-weight="700" fill="#293447" text-anchor="end">90278010</text>
</g>
<g><title>90303390 - Outros instrumentos e aparelhos para medida elétrica</title>
<rect x="170" y="694.06" width="14" height="24.32" rx="3" fill="#2c6bed"/>
<text x="158" y="709" font-size="14" font-weight="700" fill="#293447" text-anchor="end">90303390</text>
</g>
<g><title>90311090 - Máquinas e equipamentos de medida ou verificação</title>
<rect x="170" y="714.30" width="14" height="24.32" rx="3" fill="#2c6bed"/>
<text x="158" y="729" font-size="14" font-weight="700" fill="#293447" text-anchor="end">90311090</text>
</g>
<g><title>39174090 - Outros tubos e suas conexões, de plástico</title>
<rect x="170" y="735.71" width="14" height="22.00" rx="3" fill="#2c6bed"/>
<text x="158" y="749" font-size="14" font-weight="700" fill="#293447" text-anchor="end">39174090</text>
</g>
<g><title>73251000 - Peças de fundição de ferro ou aço</title>
<rect x="170" y="755.95" width="14" height="22.00" rx="3" fill="#2c6bed"/>
<text x="158" y="769" font-size="14" font-weight="700" fill="#293447" text-anchor="end">73251000</text>
</g>
<g><title>73269090 - Outras obras de ferro ou aço</title>
<rect x="170" y="776.20" width="14" height="22.00" rx="3" fill="#2c6bed"/>
<text x="158" y="790" font-size="14" font-weight="700" fill="#293447" text-anchor="end">73269090</text>
</g>
<g><title>76012000 - Alumínio não ligado, em formas brutas</title>
<rect x="170" y="796.44" width="14" height="22.00" rx="3" fill="#2c6bed"/>
<text x="158" y="810" font-size="14" font-weight="700" fill="#293447" text-anchor="end">76012000</text>
</g>
<g><title>84145990 - Outros ventiladores</title>
<rect x="170" y="816.68" width="14" height="22.00" rx="3" fill="#2c6bed"/>
<text x="158" y="830" font-size="14" font-weight="700" fill="#293447" text-anchor="end">84145990</text>
</g>
<g><title>84195000 - Trocadores de calor</title>
<rect x="170" y="836.93" width="14" height="22.00" rx="3" fill="#2c6bed"/>
<text x="158" y="850" font-size="14" font-weight="700" fill="#293447" text-anchor="end">84195000</text>
</g>
<g><title>39269090 - Outras obras de plástico</title>
<rect x="170" y="859.37" width="14" height="17.61" rx="3" fill="#2c6bed"/>
<text x="158" y="871" font-size="14" font-weight="700" fill="#293447" text-anchor="end">39269090</text>
</g>
<g><title>40169300 - Outros artefatos de borracha vulcanizada (retentores)</title>
<rect x="170" y="879.61" width="14" height="17.61" rx="3" fill="#2c6bed"/>
<text x="158" y="891" font-size="14" font-weight="700" fill="#293447" text-anchor="end">40169300</text>
</g>
<g><title>73181500 - Parafusos e pinos, mesmo com porcas ou arruelas</title>
<rect x="170" y="899.86" width="14" height="17.61" rx="3" fill="#2c6bed"/>
<text x="158" y="911" font-size="14" font-weight="700" fill="#293447" text-anchor="end">73181500</text>
</g>
<g><title>76169900 - Outras obras de alumínio</title>
<rect x="170" y="920.10" width="14" height="17.61" rx="3" fill="#2c6bed"/>
<text x="158" y="931" font-size="14" font-weight="700" fill="#293447" text-anchor="end">76169900</text>
</g>
<g><title>84821000 - Rolamentos de esferas / rolos</title>
<rect x="170" y="940.34" width="14" height="17.61" rx="3" fill="#2c6bed"/>
<text x="158" y="952" font-size="14" font-weight="700" fill="#293447" text-anchor="end">84821000</text>
</g>
<g><title>84836000 - Acoplamentos e juntas de eixos</title>
<rect x="170" y="960.59" width="14" height="17.61" rx="3" fill="#2c6bed"/>
<text x="158" y="972" font-size="14" font-weight="700" fill="#293447" text-anchor="end">84836000</text>
</g>
<g><title>85366990 - Outros aparelhos para conexão de circuitos elétricos</title>
<rect x="170" y="980.83" width="14" height="17.61" rx="3" fill="#2c6bed"/>
<text x="158" y="992" font-size="14" font-weight="700" fill="#293447" text-anchor="end">85366990</text>
</g>
<g><title>85442000 - Fios e cabos elétricos, até 1.000 V</title>
<rect x="170" y="1001.07" width="14" height="17.61" rx="3" fill="#2c6bed"/>
<text x="158" y="1012" font-size="14" font-weight="700" fill="#293447" text-anchor="end">85442000</text>
</g>
<g><title>1.1 Núcleo do Estator</title>
<rect x="760" y="181.15" width="14" height="37.00" rx="3" fill="#2c6bed"/>
<text x="786" y="202" font-size="13" font-weight="700" fill="#293447" text-anchor="start">1.1 Núcleo do Estator</text>
</g>
<g><title>1.2 Enrolamentos</title>
<rect x="760" y="200.45" width="14" height="37.00" rx="3" fill="#2c6bed"/>
<text x="786" y="221" font-size="14" font-weight="700" fill="#293447" text-anchor="start">1.2 Enrolamentos</text>
</g>
<g><title>1.3 Isolação Elétrica</title>
<rect x="760" y="219.76" width="14" height="37.00" rx="3" fill="#2c6bed"/>
<text x="786" y="241" font-size="13" font-weight="700" fill="#293447" text-anchor="start">1.3 Isolação Elétrica</text>
</g>
<g><title>1.4 Terminais e Conexões</title>
<rect x="760" y="239.06" width="14" height="37.00" rx="3" fill="#2c6bed"/>
<text x="786" y="260" font-size="13" font-weight="700" fill="#293447" text-anchor="start">1.4 Terminais e Conexões</text>
</g>
<g><title>2.1 Núcleo do Rotor</title>
<rect x="760" y="262.75" width="14" height="28.21" rx="3" fill="#2c6bed"/>
<text x="786" y="279" font-size="13" font-weight="700" fill="#293447" text-anchor="start">2.1 Núcleo do Rotor</text>
</g>
<g><title>2.2 Ímãs Permanentes</title>
<rect x="760" y="282.06" width="14" height="28.21" rx="3" fill="#2c6bed"/>
<text x="786" y="299" font-size="13" font-weight="700" fill="#293447" text-anchor="start">2.2 Ímãs Permanentes</text>
</g>
<g><title>2.3 Enrolamentos (Rotor Bobinado)</title>
<rect x="760" y="296.97" width="14" height="37.00" rx="3" fill="#2c6bed"/>
<text x="786" y="318" font-size="12" font-weight="700" fill="#293447" text-anchor="start">2.3 Enrolamentos (Rotor Bobinado)</text>
</g>
<g><title>2.4 Eixo do Rotor</title>
<rect x="760" y="320.66" width="14" height="28.21" rx="3" fill="#2c6bed"/>
<text x="786" y="337" font-size="13" font-weight="700" fill="#293447" text-anchor="start">2.4 Eixo do Rotor</text>
</g>
<g><title>3.1 Carcaça de Resfriamento</title>
<rect x="760" y="341.38" width="14" height="25.37" rx="3" fill="#2c6bed"/>
<text x="786" y="357" font-size="13" font-weight="700" fill="#293447" text-anchor="start">3.1 Carcaça de Resfriamento</text>
</g>
<g><title>3.2 Canais de Refrigeração</title>
<rect x="760" y="356.88" width="14" height="32.98" rx="3" fill="#2c6bed"/>
<text x="786" y="376" font-size="13" font-weight="700" fill="#293447" text-anchor="start">3.2 Canais de Refrigeração</text>
</g>
<g><title>3.3 Ventiladores / Hélices</title>
<rect x="760" y="379.99" width="14" height="25.37" rx="3" fill="#2c6bed"/>
<text x="786" y="395" font-size="13" font-weight="700" fill="#293447" text-anchor="start">3.3 Ventiladores / Hélices</text>
</g>
<g><title>3.4 Trocadores de Calor</title>
<rect x="760" y="399.29" width="14" height="25.37" rx="3" fill="#2c6bed"/>
<text x="786" y="414" font-size="13" font-weight="700" fill="#293447" text-anchor="start">3.4 Trocadores de Calor</text>
</g>
<g><title>4.1 Sensores de Posição / Velocidade</title>
<rect x="760" y="415.92" width="14" height="30.72" rx="3" fill="#2c6bed"/>
<text x="786" y="434" font-size="12" font-weight="700" fill="#293447" text-anchor="start">4.1 Sensores de Posição / Velocidade</text>
</g>
<g><title>4.2 Sensores de Temperatura</title>
<rect x="760" y="435.22" width="14" height="30.72" rx="3" fill="#2c6bed"/>
<text x="786" y="453" font-size="13" font-weight="700" fill="#293447" text-anchor="start">4.2 Sensores de Temperatura</text>
</g>
<g><title>4.3 Eletrônica de Interface (Placas PCBAs)</title>
<rect x="760" y="454.53" width="14" height="30.72" rx="3" fill="#2c6bed"/>
<text x="786" y="472" font-size="12" font-weight="700" fill="#293447" text-anchor="start">4.3 Eletrônica de Interface (Placas P...</text>
</g>
<g><title>4.4 Conectores e Chicotes</title>
<rect x="760" y="473.83" width="14" height="30.72" rx="3" fill="#2c6bed"/>
<text x="786" y="492" font-size="13" font-weight="700" fill="#293447" text-anchor="start">4.4 Conectores e Chicotes</text>
</g>
<g><title>5.1 Carcaça / Estrutura</title>
<rect x="760" y="498.49" width="14" height="19.99" rx="3" fill="#2c6bed"/>
<text x="786" y="511" font-size="13" font-weight="700" fill="#293447" text-anchor="start">5.1 Carcaça / Estrutura</text>
</g>
<g><title>5.2 Rolamentos</title>
<rect x="760" y="517.80" width="14" height="19.99" rx="3" fill="#2c6bed"/>
<text x="786" y="530" font-size="14" font-weight="700" fill="#293447" text-anchor="start">5.2 Rolamentos</text>
</g>
<g><title>5.3 Vedações</title>
<rect x="760" y="537.10" width="14" height="19.99" rx="3" fill="#2c6bed"/>
<text x="786" y="550" font-size="14" font-weight="700" fill="#293447" text-anchor="start">5.3 Vedações</text>
</g>
<g><title>5.4 Acoplamentos</title>
<rect x="760" y="556.40" width="14" height="19.99" rx="3" fill="#2c6bed"/>
<text x="786" y="569" font-size="14" font-weight="700" fill="#293447" text-anchor="start">5.4 Acoplamentos</text>
</g>
<g><title>5.5 Parafusos e Fixadores</title>
<rect x="760" y="575.70" width="14" height="19.99" rx="3" fill="#2c6bed"/>
<text x="786" y="588" font-size="13" font-weight="700" fill="#293447" text-anchor="start">5.5 Parafusos e Fixadores</text>
</g>
<g><title>6.1 Estamparia de Chapas</title>
<rect x="760" y="590.89" width="14" height="28.21" rx="3" fill="#2c6bed"/>
<text x="786" y="608" font-size="13" font-weight="700" fill="#293447" text-anchor="start">6.1 Estamparia de Chapas</text>
</g>
<g><title>6.2 Enrolamento de Bobinas</title>
<rect x="760" y="610.20" width="14" height="28.21" rx="3" fill="#2c6bed"/>
<text x="786" y="627" font-size="13" font-weight="700" fill="#293447" text-anchor="start">6.2 Enrolamento de Bobinas</text>
</g>
<g><title>6.3 Inserção de Ímãs</title>
<rect x="760" y="629.50" width="14" height="28.21" rx="3" fill="#2c6bed"/>
<text x="786" y="646" font-size="13" font-weight="700" fill="#293447" text-anchor="start">6.3 Inserção de Ímãs</text>
</g>
<g><title>6.4 Usinagem de Precisão</title>
<rect x="760" y="648.80" width="14" height="28.21" rx="3" fill="#2c6bed"/>
<text x="786" y="665" font-size="13" font-weight="700" fill="#293447" text-anchor="start">6.4 Usinagem de Precisão</text>
</g>
<g><title>6.5 Montagem e Balanceamento</title>
<rect x="760" y="668.10" width="14" height="28.21" rx="3" fill="#2c6bed"/>
<text x="786" y="685" font-size="13" font-weight="700" fill="#293447" text-anchor="start">6.5 Montagem e Balanceamento</text>
</g>
<g><title>6.6 Impregnação / Verniz</title>
<rect x="760" y="687.41" width="14" height="28.21" rx="3" fill="#2c6bed"/>
<text x="786" y="704" font-size="13" font-weight="700" fill="#293447" text-anchor="start">6.6 Impregnação / Verniz</text>
</g>
<g><title>7.1 Ensaios Elétricos</title>
<rect x="760" y="706.71" width="14" height="28.21" rx="3" fill="#2c6bed"/>
<text x="786" y="723" font-size="13" font-weight="700" fill="#293447" text-anchor="start">7.1 Ensaios Elétricos</text>
</g>
<g><title>7.2 Ensaios Mecânicos</title>
<rect x="760" y="726.01" width="14" height="28.21" rx="3" fill="#2c6bed"/>
<text x="786" y="743" font-size="13" font-weight="700" fill="#293447" text-anchor="start">7.2 Ensaios Mecânicos</text>
</g>
<g><title>7.3 Ensaios Térmicos</title>
<rect x="760" y="745.31" width="14" height="28.21" rx="3" fill="#2c6bed"/>
<text x="786" y="762" font-size="13" font-weight="700" fill="#293447" text-anchor="start">7.3 Ensaios Térmicos</text>
</g>
<g><title>7.4 Ensaios NVH (Ruído/Vibração)</title>
<rect x="760" y="764.61" width="14" height="28.21" rx="3" fill="#2c6bed"/>
<text x="786" y="781" font-size="13" font-weight="700" fill="#293447" text-anchor="start">7.4 Ensaios NVH (Ruído/Vibração)</text>
</g>
<g><title>7.5 Bancos de Teste</title>
<rect x="760" y="783.92" width="14" height="28.21" rx="3" fill="#2c6bed"/>
<text x="786" y="801" font-size="13" font-weight="700" fill="#293447" text-anchor="start">7.5 Bancos de Teste</text>
</g>
<g><title>8.1 Aço Elétrico (Silício)</title>
<rect x="760" y="803.22" width="14" height="28.21" rx="3" fill="#2c6bed"/>
<text x="786" y="820" font-size="13" font-weight="700" fill="#293447" text-anchor="start">8.1 Aço Elétrico (Silício)</text>
</g>
<g><title>8.2 Cobre</title>
<rect x="760" y="822.52" width="14" height="28.21" rx="3" fill="#2c6bed"/>
<text x="786" y="839" font-size="14" font-weight="700" fill="#293447" text-anchor="start">8.2 Cobre</text>
</g>
<g><title>8.3 Ímãs de Terras Raras (NdFeB)</title>
<rect x="760" y="841.82" width="14" height="28.21" rx="3" fill="#2c6bed"/>
<text x="786" y="858" font-size="13" font-weight="700" fill="#293447" text-anchor="start">8.3 Ímãs de Terras Raras (NdFeB)</text>
</g>
<g><title>8.4 Resinas e Vernizes Isolantes</title>
<rect x="760" y="861.13" width="14" height="28.21" rx="3" fill="#2c6bed"/>
<text x="786" y="878" font-size="13" font-weight="700" fill="#293447" text-anchor="start">8.4 Resinas e Vernizes Isolantes</text>
</g>
<g><title>8.5 Adesivos / Selantes</title>
<rect x="760" y="880.43" width="14" height="28.21" rx="3" fill="#2c6bed"/>
<text x="786" y="897" font-size="13" font-weight="700" fill="#293447" text-anchor="start">8.5 Adesivos / Selantes</text>
</g>
<g><title>8.6 Gases Técnicos</title>
<rect x="760" y="899.73" width="14" height="28.21" rx="3" fill="#2c6bed"/>
<text x="786" y="916" font-size="13" font-weight="700" fill="#293447" text-anchor="start">8.6 Gases Técnicos</text>
</g>
<g><title>9.1 Chicotes e Cabos</title>
<rect x="760" y="923.14" width="14" height="19.99" rx="3" fill="#2c6bed"/>
<text x="786" y="936" font-size="13" font-weight="700" fill="#293447" text-anchor="start">9.1 Chicotes e Cabos</text>
</g>
<g><title>9.2 Conectores</title>
<rect x="760" y="942.45" width="14" height="19.99" rx="3" fill="#2c6bed"/>
<text x="786" y="955" font-size="14" font-weight="700" fill="#293447" text-anchor="start">9.2 Conectores</text>
</g>
<g><title>9.3 Tampas e Tampões</title>
<rect x="760" y="961.75" width="14" height="19.99" rx="3" fill="#2c6bed"/>
<text x="786" y="974" font-size="13" font-weight="700" fill="#293447" text-anchor="start">9.3 Tampas e Tampões</text>
</g>
<g><title>9.4 Suportes e Fixações</title>
<rect x="760" y="981.05" width="14" height="19.99" rx="3" fill="#2c6bed"/>
<text x="786" y="994" font-size="13" font-weight="700" fill="#293447" text-anchor="start">9.4 Suportes e Fixações</text>
</g>
<g><title>9.5 Proteções e Blindagens</title>
<rect x="760" y="1000.35" width="14" height="19.99" rx="3" fill="#2c6bed"/>
<text x="786" y="1013" font-size="13" font-weight="700" fill="#293447" text-anchor="start">9.5 Proteções e Blindagens</text>
</g>
<g><title>1. Sistema Estator</title>
<rect x="1430" y="217.61" width="14" height="37.00" rx="3" fill="#2c6bed"/>
<text x="1456" y="239" font-size="13" font-weight="700" fill="#293447" text-anchor="start">1. Sistema Estator</text>
</g>
<g><title>2. Sistema Rotor</title>
<rect x="1430" y="312.97" width="14" height="30.72" rx="3" fill="#2c6bed"/>
<text x="1456" y="331" font-size="14" font-weight="700" fill="#293447" text-anchor="start">2. Sistema Rotor</text>
</g>
<g><title>3. Sistema Térmico</title>
<rect x="1430" y="406.79" width="14" height="27.54" rx="3" fill="#2c6bed"/>
<text x="1456" y="423" font-size="13" font-weight="700" fill="#293447" text-anchor="start">3. Sistema Térmico</text>
</g>
<g><title>4. Controle e Sensoriamento</title>
<rect x="1430" y="497.42" width="14" height="30.72" rx="3" fill="#2c6bed"/>
<text x="1456" y="515" font-size="13" font-weight="700" fill="#293447" text-anchor="start">4. Controle e Sensoriamento</text>
</g>
<g><title>5. Sistema Estrutural e Mecânico</title>
<rect x="1430" y="594.24" width="14" height="21.52" rx="3" fill="#2c6bed"/>
<text x="1456" y="608" font-size="13" font-weight="700" fill="#293447" text-anchor="start">5. Sistema Estrutural e Mecânico</text>
</g>
<g><title>6. Processos Produtivos</title>
<rect x="1430" y="680.73" width="14" height="32.98" rx="3" fill="#2c6bed"/>
<text x="1456" y="700" font-size="13" font-weight="700" fill="#293447" text-anchor="start">6. Processos Produtivos</text>
</g>
<g><title>7. Ensaios e Validação</title>
<rect x="1430" y="774.09" width="14" height="30.72" rx="3" fill="#2c6bed"/>
<text x="1456" y="792" font-size="13" font-weight="700" fill="#293447" text-anchor="start">7. Ensaios e Validação</text>
</g>
<g><title>8. Materiais e Insumos</title>
<rect x="1430" y="865.18" width="14" height="32.98" rx="3" fill="#2c6bed"/>
<text x="1456" y="884" font-size="13" font-weight="700" fill="#293447" text-anchor="start">8. Materiais e Insumos</text>
</g>
<g><title>9. Acessórios e Sistemas de Suporte</title>
<rect x="1430" y="963.13" width="14" height="21.52" rx="3" fill="#2c6bed"/>
<text x="1456" y="976" font-size="12" font-weight="700" fill="#293447" text-anchor="start">9. Acessórios e Sistemas de Suporte</text>
</g>
<text x="72" y="1050" font-size="18" font-weight="500" fill="#5e6877" text-anchor="start">Altura dos nós e largura dos fluxos = soma de criticidade x complexidade. Nós maiores indicam maior peso estratégico na cadeia.</text>
</svg>