<svg xmlns="http://www.w3.org/2000/svg" width="1920" height="1080" viewBox="0 0 1920 1080">
<rect width="1920" height="1080" fill="#f6f2ea"/>
<rect x="0" y="0" width="1920" height="1080" fill="#fff0e6" opacity="0.58"/>
<rect x="0" y="0" width="1920" height="18" fill="#d16931"/>
<text x="72" y="88" font-size="42" font-weight="800" fill="#172033">Mapa de empresas por componente</text>
<text x="72" y="125" font-size="27" font-weight="800" fill="#d16931">GT 3 – Inversores / Conversores de Potência - parte 2/4</text>
<text x="72" y="156" font-size="20" font-weight="500" fill="#4a5668">Todos os componentes, numero de CNPJs unicos e duas empresas destaque por faturamento e patentes</text>
<rect x="1080" y="62" width="220" height="92" rx="8" fill="#ffffff" stroke="#d8d3c8"/>
<text x="1100" y="102" font-size="34" font-weight="800" fill="#172033">4.755</text>
<text x="1100" y="130" font-size="16" font-weight="500" fill="#5e6877">CNPJs unicos no GT</text>
<rect x="1326" y="62" width="220" height="92" rx="8" fill="#ffffff" stroke="#d8d3c8"/>
<text x="1346" y="102" font-size="34" font-weight="800" fill="#172033">43</text>
<text x="1346" y="130" font-size="16" font-weight="500" fill="#5e6877">componentes com empresas</text>
<rect x="1572" y="62" width="220" height="92" rx="8" fill="#ffffff" stroke="#d8d3c8"/>
<text x="1592" y="102" font-size="34" font-weight="800" fill="#172033">49</text>
<text x="1592" y="130" font-size="16" font-weight="500" fill="#5e6877">componentes do GT</text>
<rect x="72" y="176" width="568" height="28" rx="7" fill="#d16931"/>
<text x="88" y="196" font-size="16" font-weight="800" fill="#ffffff">Componentes 16-20</text>
<rect x="72" y="214" width="568" height="140" rx="7" fill="#ffffff" opacity="0.48" stroke="#d8d3c8"/>
<rect x="72" y="214" width="6" height="140" rx="3" fill="#d16931" opacity="0.48"/>
<text x="90" y="238" font-size="16" font-weight="800" fill="#1c2637">3.4 PCB Multicamadas</text>
<text x="90" y="278" font-size="11" font-weight="500" fill="#6b7584">3. Controle e Processamento Eletrônico</text>
<rect x="470" y="232" width="118" height="8" rx="4" fill="#fff0e6"/>
<text x="474" y="274" font-size="32" font-weight="800" fill="#d16931">0</text>
<text x="474" y="296" font-size="11" font-weight="700" fill="#687386">CNPJs unicos</text>
<text x="90" y="299" font-size="11" font-weight="800" fill="#687386">Faturamento</text>
<text x="177" y="299" font-size="10" font-weight="500" fill="#283346">-</text>
<text x="90" y="336" font-size="11" font-weight="800" fill="#687386">Patentes</text>
<text x="156" y="336" font-size="10" font-weight="500" fill="#283346">-</text>
<rect x="72" y="366" width="568" height="140" rx="7" fill="#ffffff" opacity="1" stroke="#d8d3c8"/>
<rect x="72" y="366" width="6" height="140" rx="3" fill="#d16931" opacity="1"/>
<text x="90" y="390" font-size="16" font-weight="800" fill="#1c2637">3.5 Isoladores Digitais</text>
<text x="90" y="430" font-size="11" font-weight="500" fill="#6b7584">3. Controle e Processamento Eletrônico</text>
<rect x="470" y="384" width="118" height="8" rx="4" fill="#fff0e6"/>
<rect x="470" y="384" width="11" height="8" rx="4" fill="#d16931"/>
<text x="474" y="426" font-size="32" font-weight="800" fill="#d16931">126</text>
<text x="474" y="448" font-size="11" font-weight="700" fill="#687386">CNPJs unicos</text>
<text x="90" y="451" font-size="11" font-weight="800" fill="#687386">Faturamento</text>
<text x="177" y="451" font-size="10" font-weight="500" fill="#283346">1. WEG EQUIPAMENTOS ELETRICOS S/A (1B OU SUPERIOR)</text>
<text x="177" y="465" font-size="10" font-weight="500" fill="#283346">2. TDK ELECTRONICS BRASIL (1B OU SUPERIOR)</text>
<text x="90" y="488" font-size="11" font-weight="800" fill="#687386">Patentes</text>
<text x="156" y="488" font-size="10" font-weight="500" fill="#283346">1. WEG EQUIPAMENTOS ELETRICOS S/A</text>
<rect x="72" y="518" width="568" height="140" rx="7" fill="#ffffff" opacity="1" stroke="#d8d3c8"/>
<rect x="72" y="518" width="6" height="140" rx="3" fill="#d16931" opacity="1"/>
<text x="90" y="542" font-size="16" font-weight="800" fill="#1c2637">3.6 Comunicação CAN/Ethernet</text>
<text x="90" y="582" font-size="11" font-weight="500" fill="#6b7584">3. Controle e Processamento Eletrônico</text>
<rect x="470" y="536" width="118" height="8" rx="4" fill="#fff0e6"/>
<rect x="470" y="536" width="3" height="8" rx="4" fill="#d16931"/>
<text x="474" y="578" font-size="32" font-weight="800" fill="#d16931">40</text>
<text x="474" y="600" font-size="11" font-weight="700" fill="#687386">CNPJs unicos</text>
<text x="90" y="603" font-size="11" font-weight="800" fill="#687386">Faturamento</text>
<text x="177" y="603" font-size="10" font-weight="500" fill="#283346">1. INTELBRAS . TELECOMUNICACAO ELETR... (1B OU...</text>
<text x="177" y="617" font-size="10" font-weight="500" fill="#283346">2. INTELBRAS . TELECOMUNICACAO ELETR... (1B OU...</text>
<text x="90" y="640" font-size="11" font-weight="800" fill="#687386">Patentes</text>
<text x="156" y="640" font-size="10" font-weight="500" fill="#283346">1. NILKO TECNOLOGIA</text>
<rect x="72" y="670" width="568" height="140" rx="7" fill="#ffffff" opacity="1" stroke="#d8d3c8"/>
<rect x="72" y="670" width="6" height="140" rx="3" fill="#d16931" opacity="1"/>
<text x="90" y="694" font-size="16" font-weight="800" fill="#1c2637">3.7 Firmware / Software Embarcado</text>
<text x="90" y="734" font-size="11" font-weight="500" fill="#6b7584">3. Controle e Processamento Eletrônico</text>
<rect x="470" y="688" width="118" height="8" rx="4" fill="#fff0e6"/>
<rect x="470" y="688" width="1" height="8" rx="4" fill="#d16931"/>
<text x="474" y="730" font-size="32" font-weight="800" fill="#d16931">16</text>
<text x="474" y="752" font-size="11" font-weight="700" fill="#687386">CNPJs unicos</text>
<text x="90" y="755" font-size="11" font-weight="800" fill="#687386">Faturamento</text>
<text x="177" y="755" font-size="10" font-weight="500" fill="#283346">1. ABACO TECNOLOGIA INFORMACAO (300M A 500M)</text>
<text x="177" y="769" font-size="10" font-weight="500" fill="#283346">2. CENOFISCO EDITORA PUBLICACOES TRI... (100M A...</text>
<text x="90" y="792" font-size="11" font-weight="800" fill="#687386">Patentes</text>
<text x="156" y="792" font-size="10" font-weight="500" fill="#283346">1. AVETOOLS - SOLUCOES MONITORAMENTO...</text>
<rect x="72" y="822" width="568" height="140" rx="7" fill="#ffffff" opacity="1" stroke="#d8d3c8"/>
<rect x="72" y="822" width="6" height="140" rx="3" fill="#d16931" opacity="1"/>
<text x="90" y="846" font-size="16" font-weight="800" fill="#1c2637">4.1 Dissipadores Alumínio</text>
<text x="90" y="886" font-size="11" font-weight="500" fill="#6b7584">4. Gestão Térmica</text>
<rect x="470" y="840" width="118" height="8" rx="4" fill="#fff0e6"/>
<rect x="470" y="840" width="29" height="8" rx="4" fill="#d16931"/>
<text x="474" y="882" font-size="32" font-weight="800" fill="#d16931">310</text>
<text x="474" y="904" font-size="11" font-weight="700" fill="#687386">CNPJs unicos</text>
<text x="90" y="907" font-size="11" font-weight="800" fill="#687386">Faturamento</text>
<text x="177" y="907" font-size="10" font-weight="500" fill="#283346">1. GE ENERGIAS RENOVAVEIS (1B OU SUPERIOR)</text>
<text x="177" y="921" font-size="10" font-weight="500" fill="#283346">2. CERACA - COOPERATIVA INFRA-ESTRUT... (1B OU...</text>
<text x="90" y="944" font-size="11" font-weight="800" fill="#687386">Patentes</text>
<text x="156" y="944" font-size="10" font-weight="500" fill="#283346">1. AGUIA SISTEMAS ARMAZENAGEM</text>
<rect x="674" y="176" width="568" height="28" rx="7" fill="#d16931"/>
<text x="690" y="196" font-size="16" font-weight="800" fill="#ffffff">Componentes 21-25</text>
<rect x="674" y="214" width="568" height="140" rx="7" fill="#ffffff" opacity="1" stroke="#d8d3c8"/>
<rect x="674" y="214" width="6" height="140" rx="3" fill="#d16931" opacity="1"/>
<text x="692" y="238" font-size="16" font-weight="800" fill="#1c2637">4.2 Cold Plates</text>
<text x="692" y="278" font-size="11" font-weight="500" fill="#6b7584">4. Gestão Térmica</text>
<rect x="1072" y="232" width="118" height="8" rx="4" fill="#fff0e6"/>
<rect x="1072" y="232" width="29" height="8" rx="4" fill="#d16931"/>
<text x="1076" y="274" font-size="32" font-weight="800" fill="#d16931">310</text>
<text x="1076" y="296" font-size="11" font-weight="700" fill="#687386">CNPJs unicos</text>
<text x="692" y="299" font-size="11" font-weight="800" fill="#687386">Faturamento</text>
<text x="779" y="299" font-size="10" font-weight="500" fill="#283346">1. GE ENERGIAS RENOVAVEIS (1B OU SUPERIOR)</text>
<text x="779" y="313" font-size="10" font-weight="500" fill="#283346">2. CERACA - COOPERATIVA INFRA-ESTRUT... (1B OU...</text>
<text x="692" y="336" font-size="11" font-weight="800" fill="#687386">Patentes</text>
<text x="758" y="336" font-size="10" font-weight="500" fill="#283346">1. AGUIA SISTEMAS ARMAZENAGEM</text>
<rect x="674" y="366" width="568" height="140" rx="7" fill="#ffffff" opacity="1" stroke="#d8d3c8"/>
<rect x="674" y="366" width="6" height="140" rx="3" fill="#d16931" opacity="1"/>
<text x="692" y="390" font-size="16" font-weight="800" fill="#1c2637">4.3 Interface Térmica (TIM/Paste)</text>
<text x="692" y="430" font-size="11" font-weight="500" fill="#6b7584">4. Gestão Térmica</text>
<rect x="1072" y="384" width="118" height="8" rx="4" fill="#fff0e6"/>
<rect x="1072" y="384" width="35" height="8" rx="4" fill="#d16931"/>
<text x="1076" y="426" font-size="32" font-weight="800" fill="#d16931">377</text>
<text x="1076" y="448" font-size="11" font-weight="700" fill="#687386">CNPJs unicos</text>
<text x="692" y="451" font-size="11" font-weight="800" fill="#687386">Faturamento</text>
<text x="779" y="451" font-size="10" font-weight="500" fill="#283346">1. IBQ - INDUSTRIAS QUIMICAS S/A (1B OU SUPERIOR)</text>
<text x="779" y="465" font-size="10" font-weight="500" fill="#283346">2. IBQ - INDUSTRIAS QUIMICAS S/A (1B OU SUPERIOR)</text>
<text x="692" y="488" font-size="11" font-weight="800" fill="#687386">Patentes</text>
<text x="758" y="488" font-size="10" font-weight="500" fill="#283346">1. BUNGE ALIMENTOS S/A</text>
<rect x="674" y="518" width="568" height="140" rx="7" fill="#ffffff" opacity="1" stroke="#d8d3c8"/>
<rect x="674" y="518" width="6" height="140" rx="3" fill="#d16931" opacity="1"/>
<text x="692" y="542" font-size="16" font-weight="800" fill="#1c2637">4.4 Sensores Temperatura</text>
<text x="692" y="582" font-size="11" font-weight="500" fill="#6b7584">4. Gestão Térmica</text>
<rect x="1072" y="536" width="118" height="8" rx="4" fill="#fff0e6"/>
<rect x="1072" y="536" width="12" height="8" rx="4" fill="#d16931"/>
<text x="1076" y="578" font-size="32" font-weight="800" fill="#d16931">138</text>
<text x="1076" y="600" font-size="11" font-weight="700" fill="#687386">CNPJs unicos</text>
<text x="692" y="603" font-size="11" font-weight="800" fill="#687386">Faturamento</text>
<text x="779" y="603" font-size="10" font-weight="500" fill="#283346">1. WEG EQUIPAMENTOS ELETRICOS S/A (1B OU SUPERIOR)</text>
<text x="779" y="617" font-size="10" font-weight="500" fill="#283346">2. WEG EQUIPAMENTOS ELETRICOS S/A (1B OU SUPERIOR)</text>
<text x="692" y="640" font-size="11" font-weight="800" fill="#687386">Patentes</text>
<text x="758" y="640" font-size="10" font-weight="500" fill="#283346">1. WEG EQUIPAMENTOS ELETRICOS S/A</text>
<rect x="674" y="670" width="568" height="140" rx="7" fill="#ffffff" opacity="1" stroke="#d8d3c8"/>
<rect x="674" y="670" width="6" height="140" rx="3" fill="#d16931" opacity="1"/>
<text x="692" y="694" font-size="16" font-weight="800" fill="#1c2637">4.5 Ventoinhas</text>
<text x="692" y="734" font-size="11" font-weight="500" fill="#6b7584">4. Gestão Térmica</text>
<rect x="1072" y="688" width="118" height="8" rx="4" fill="#fff0e6"/>
<rect x="1072" y="688" width="58" height="8" rx="4" fill="#d16931"/>
<text x="1076" y="730" font-size="32" font-weight="800" fill="#d16931">622</text>
<text x="1076" y="752" font-size="11" font-weight="700" fill="#687386">CNPJs unicos</text>
<text x="692" y="755" font-size="11" font-weight="800" fill="#687386">Faturamento</text>
<text x="779" y="755" font-size="10" font-weight="500" fill="#283346">1. TK ELEVADORES BRASIL (1B OU SUPERIOR)</text>
<text x="779" y="769" font-size="10" font-weight="500" fill="#283346">2. ELEVADORES ATLAS SCHINDLER (1B OU SUPERIOR)</text>
<text x="692" y="792" font-size="11" font-weight="800" fill="#687386">Patentes</text>
<text x="758" y="792" font-size="10" font-weight="500" fill="#283346">1. NIDEC GLOBAL APPLIANCE BRASIL</text>
<rect x="674" y="822" width="568" height="140" rx="7" fill="#ffffff" opacity="1" stroke="#d8d3c8"/>
<rect x="674" y="822" width="6" height="140" rx="3" fill="#d16931" opacity="1"/>
<text x="692" y="846" font-size="16" font-weight="800" fill="#1c2637">4.6 Bombas Circulação</text>
<text x="692" y="886" font-size="11" font-weight="500" fill="#6b7584">4. Gestão Térmica</text>
<rect x="1072" y="840" width="118" height="8" rx="4" fill="#fff0e6"/>
<rect x="1072" y="840" width="17" height="8" rx="4" fill="#d16931"/>
<text x="1076" y="882" font-size="32" font-weight="800" fill="#d16931">181</text>
<text x="1076" y="904" font-size="11" font-weight="700" fill="#687386">CNPJs unicos</text>
<text x="692" y="907" font-size="11" font-weight="800" fill="#687386">Faturamento</text>
<text x="779" y="907" font-size="10" font-weight="500" fill="#283346">1. DOCOL (1B OU SUPERIOR)</text>
<text x="779" y="921" font-size="10" font-weight="500" fill="#283346">2. SCHULZ S/A (1B OU SUPERIOR)</text>
<text x="692" y="944" font-size="11" font-weight="800" fill="#687386">Patentes</text>
<text x="758" y="944" font-size="10" font-weight="500" fill="#283346">1. NIDEC GLOBAL APPLIANCE BRASIL</text>
<rect x="1276" y="176" width="568" height="28" rx="7" fill="#d16931"/>
<text x="1292" y="196" font-size="16" font-weight="800" fill="#ffffff">Componentes 26-30</text>
<rect x="1276" y="214" width="568" height="140" rx="7" fill="#ffffff" opacity="1" stroke="#d8d3c8"/>
<rect x="1276" y="214" width="6" height="140" rx="3" fill="#d16931" opacity="1"/>
<text x="1294" y="238" font-size="16" font-weight="800" fill="#1c2637">5.1 Fusíveis HV</text>
<text x="1294" y="278" font-size="11" font-weight="500" fill="#6b7584">5. Proteção e Segurança</text>
<rect x="1674" y="232" width="118" height="8" rx="4" fill="#fff0e6"/>
<rect x="1674" y="232" width="20" height="8" rx="4" fill="#d16931"/>
<text x="1678" y="274" font-size="32" font-weight="800" fill="#d16931">221</text>
<text x="1678" y="296" font-size="11" font-weight="700" fill="#687386">CNPJs unicos</text>
<text x="1294" y="299" font-size="11" font-weight="800" fill="#687386">Faturamento</text>
<text x="1381" y="299" font-size="10" font-weight="500" fill="#283346">1. WEG EQUIPAMENTOS ELETRICOS S/A (1B OU SUPERIOR)</text>
<text x="1381" y="313" font-size="10" font-weight="500" fill="#283346">2. LEGRAND BRASIL (1B OU SUPERIOR)</text>
<text x="1294" y="336" font-size="11" font-weight="800" fill="#687386">Patentes</text>
<text x="1360" y="336" font-size="10" font-weight="500" fill="#283346">1. WEG EQUIPAMENTOS ELETRICOS S/A</text>
<rect x="1276" y="366" width="568" height="140" rx="7" fill="#ffffff" opacity="1" stroke="#d8d3c8"/>
<rect x="1276" y="366" width="6" height="140" rx="3" fill="#d16931" opacity="1"/>
<text x="1294" y="390" font-size="16" font-weight="800" fill="#1c2637">5.2 Disjuntores</text>
<text x="1294" y="430" font-size="11" font-weight="500" fill="#6b7584">5. Proteção e Segurança</text>
<rect x="1674" y="384" width="118" height="8" rx="4" fill="#fff0e6"/>
<rect x="1674" y="384" width="20" height="8" rx="4" fill="#d16931"/>
<text x="1678" y="426" font-size="32" font-weight="800" fill="#d16931">221</text>
<text x="1678" y="448" font-size="11" font-weight="700" fill="#687386">CNPJs unicos</text>
<text x="1294" y="451" font-size="11" font-weight="800" fill="#687386">Faturamento</text>
<text x="1381" y="451" font-size="10" font-weight="500" fill="#283346">1. WEG EQUIPAMENTOS ELETRICOS S/A (1B OU SUPERIOR)</text>
<text x="1381" y="465" font-size="10" font-weight="500" fill="#283346">2. LEGRAND BRASIL (1B OU SUPERIOR)</text>
<text x="1294" y="488" font-size="11" font-weight="800" fill="#687386">Patentes</text>
<text x="1360" y="488" font-size="10" font-weight="500" fill="#283346">1. WEG EQUIPAMENTOS ELETRICOS S/A</text>
<rect x="1276" y="518" width="568" height="140" rx="7" fill="#ffffff" opacity="1" stroke="#d8d3c8"/>
<rect x="1276" y="518" width="6" height="140" rx="3" fill="#d16931" opacity="1"/>
<text x="1294" y="542" font-size="16" font-weight="800" fill="#1c2637">5.3 Contatores HV</text>
<text x="1294" y="582" font-size="11" font-weight="500" fill="#6b7584">5. Proteção e Segurança</text>
<rect x="1674" y="536" width="118" height="8" rx="4" fill="#fff0e6"/>
<rect x="1674" y="536" width="20" height="8" rx="4" fill="#d16931"/>
<text x="1678" y="578" font-size="32" font-weight="800" fill="#d16931">221</text>
<text x="1678" y="600" font-size="11" font-weight="700" fill="#687386">CNPJs unicos</text>
<text x="1294" y="603" font-size="11" font-weight="800" fill="#687386">Faturamento</text>
<text x="1381" y="603" font-size="10" font-weight="500" fill="#283346">1. WEG EQUIPAMENTOS ELETRICOS S/A (1B OU SUPERIOR)</text>
<text x="1381" y="617" font-size="10" font-weight="500" fill="#283346">2. LEGRAND BRASIL (1B OU SUPERIOR)</text>
<text x="1294" y="640" font-size="11" font-weight="800" fill="#687386">Patentes</text>
<text x="1360" y="640" font-size="10" font-weight="500" fill="#283346">1. WEG EQUIPAMENTOS ELETRICOS S/A</text>
<rect x="1276" y="670" width="568" height="140" rx="7" fill="#ffffff" opacity="1" stroke="#d8d3c8"/>
<rect x="1276" y="670" width="6" height="140" rx="3" fill="#d16931" opacity="1"/>
<text x="1294" y="694" font-size="16" font-weight="800" fill="#1c2637">5.4 Sensores Corrente HV</text>
<text x="1294" y="734" font-size="11" font-weight="500" fill="#6b7584">5. Proteção e Segurança</text>
<rect x="1674" y="688" width="118" height="8" rx="4" fill="#fff0e6"/>
<rect x="1674" y="688" width="12" height="8" rx="4" fill="#d16931"/>
<text x="1678" y="730" font-size="32" font-weight="800" fill="#d16931">138</text>
<text x="1678" y="752" font-size="11" font-weight="700" fill="#687386">CNPJs unicos</text>
<text x="1294" y="755" font-size="11" font-weight="800" fill="#687386">Faturamento</text>
<text x="1381" y="755" font-size="10" font-weight="500" fill="#283346">1. WEG EQUIPAMENTOS ELETRICOS S/A (1B OU SUPERIOR)</text>
<text x="1381" y="769" font-size="10" font-weight="500" fill="#283346">2. WEG EQUIPAMENTOS ELETRICOS S/A (1B OU SUPERIOR)</text>
<text x="1294" y="792" font-size="11" font-weight="800" fill="#687386">Patentes</text>
<text x="1360" y="792" font-size="10" font-weight="500" fill="#283346">1. WEG EQUIPAMENTOS ELETRICOS S/A</text>
<rect x="1276" y="822" width="568" height="140" rx="7" fill="#ffffff" opacity="1" stroke="#d8d3c8"/>
<rect x="1276" y="822" width="6" height="140" rx="3" fill="#d16931" opacity="1"/>
<text x="1294" y="846" font-size="16" font-weight="800" fill="#1c2637">5.5 Isoladores Galvânicos</text>
<text x="1294" y="886" font-size="11" font-weight="500" fill="#6b7584">5. Proteção e Segurança</text>
<rect x="1674" y="840" width="118" height="8" rx="4" fill="#fff0e6"/>
<rect x="1674" y="840" width="118" height="8" rx="4" fill="#d16931"/>
<text x="1678" y="882" font-size="32" font-weight="800" fill="#d16931">1.255</text>
<text x="1678" y="904" font-size="11" font-weight="700" fill="#687386">CNPJs unicos</text>
<text x="1294" y="907" font-size="11" font-weight="800" fill="#687386">Faturamento</text>
<text x="1381" y="907" font-size="10" font-weight="500" fill="#283346">1. MARCOPOLO (1B OU SUPERIOR)</text>
<text x="1381" y="921" font-size="10" font-weight="500" fill="#283346">2. AMCOR FLEXIBLES BRASIL EMBALAGENS (1B OU...</text>
<text x="1294" y="944" font-size="11" font-weight="800" fill="#687386">Patentes</text>
<text x="1360" y="944" font-size="10" font-weight="500" fill="#283346">1. MARCOPOLO</text>
<text x="72" y="1034" font-size="17" font-weight="500" fill="#5e6877">Componentes sem CNPJs aparecem esmaecidos. Fat. = 2 maiores faixas de faturamento; Pat. = 2 maiores totais de patentes.</text>
</svg>